<?xml version="1.0" standalone="no"?>
<!DOCTYPE svg PUBLIC "-//W3C//DTD SVG 20010904//EN"
 "http://www.w3.org/TR/2001/REC-SVG-20010904/DTD/svg10.dtd">
<svg version="1.0" xmlns="http://www.w3.org/2000/svg"
 width="95.040000pt" height="95.040000pt" viewBox="0 0 95.040000 95.040000"
 preserveAspectRatio="xMidYMid meet">
<metadata>
Created by potrace 1.16, written by Peter Selinger 2001-2019
</metadata>
<g transform="translate(0.000000,95.040000) scale(0.024000,-0.024000)"
fill="#000000" stroke="none">
<path d="M2190 3545 c-130 -19 -201 -39 -295 -85 -143 -69 -229 -169 -269
-310 -21 -76 -25 -118 -26 -240 l0 -105 -36 -1 c-76 -2 -122 -94 -102 -204 11
-62 69 -180 111 -226 28 -32 36 -50 41 -99 9 -77 43 -152 96 -208 l41 -45 -31
-7 c-78 -17 -133 -105 -131 -210 1 -52 -5 -76 -35 -139 -40 -88 -67 -202 -85
-360 -7 -59 -18 -109 -23 -111 -6 -2 -42 -10 -81 -19 -41 -9 -88 -29 -113 -46
-23 -16 -59 -32 -80 -36 l-37 -6 -33 71 c-18 39 -35 91 -39 117 -7 53 -24 74
-53 67 -39 -10 -53 -47 -46 -113 8 -71 2 -88 -25 -64 -15 14 -30 16 -77 11
-97 -10 -101 -14 -109 -107 -14 -158 7 -229 80 -267 40 -20 228 -15 274 9 28
14 33 14 47 0 14 -14 22 -14 88 6 40 13 87 21 103 18 17 -2 35 -4 40 -5 7 -1
7 -30 -1 -89 -18 -140 -11 -271 17 -328 l23 -48 -18 -121 c-10 -66 -19 -148
-21 -182 l-3 -63 218 0 218 0 7 76 7 75 37 -3 36 -3 9 -73 9 -72 219 0 220 0
-5 52 c-3 29 -9 79 -12 110 -6 43 -4 67 9 98 9 22 16 51 16 64 0 17 7 26 24
30 35 9 48 53 49 161 l0 96 274 -5 c178 -3 286 -1 306 6 73 24 120 81 132 160
7 42 -16 107 -80 228 -25 47 -97 189 -160 317 -91 184 -121 236 -147 254 -18
13 -58 44 -88 70 -30 25 -74 58 -96 72 -23 14 -44 35 -47 46 -4 17 1 22 36 31
131 33 296 111 399 189 132 100 192 193 204 312 6 53 13 70 39 100 65 73 123
236 111 313 -11 65 -41 105 -91 118 l-42 11 -6 126 c-9 198 -51 313 -151 411
-152 152 -501 223 -846 175z m659 -250 c47 -4 71 -16 87 -43 9 -16 13 -19 9
-7 -10 31 61 -47 85 -94 22 -43 25 -55 12 -47 -5 3 -9 -1 -9 -8 0 -8 6 -12 12
-10 13 5 15 -7 15 -76 -1 -45 37 -180 49 -180 9 0 6 -124 -3 -138 -3 -6 -1
-14 5 -18 8 -5 9 -3 4 6 -5 8 -3 11 6 8 18 -6 15 -154 -4 -177 -9 -12 -9 -13
1 -7 12 7 15 -23 14 -154 0 -78 -14 -137 -36 -152 -7 -5 -7 -8 2 -8 7 0 11 -4
7 -10 -3 -5 -11 -8 -18 -6 -7 1 -9 1 -4 -1 11 -7 8 -21 -9 -49 -16 -23 -18
-24 -40 -9 -32 21 -38 19 -13 -6 16 -16 18 -23 8 -35 -6 -8 -18 -14 -25 -14
-8 0 -14 -4 -14 -9 0 -5 -17 -21 -37 -37 -20 -15 -33 -22 -29 -16 4 7 3 12 -1
12 -5 0 -13 -10 -18 -22 -6 -12 -17 -24 -25 -26 -9 -3 -7 2 5 12 19 16 19 16
-7 5 -15 -7 -25 -16 -22 -20 3 -5 0 -9 -6 -9 -6 0 -18 -7 -26 -15 -8 -8 -22
-11 -31 -8 -10 4 -14 2 -10 -4 4 -6 -11 -18 -36 -28 -23 -9 -42 -16 -42 -14 0
1 -18 -7 -40 -18 -22 -11 -50 -19 -63 -17 -16 3 -21 0 -16 -8 4 -6 3 -8 -3 -5
-6 4 -13 16 -16 27 -3 13 -1 18 5 13 6 -3 8 -1 4 5 -3 5 0 13 6 15 7 3 -3 3
-22 0 -19 -2 -44 -5 -55 -5 -11 0 -14 -2 -7 -5 14 -6 16 -29 2 -38 -6 -4 -7 1
-3 12 5 14 0 13 -22 -7 -16 -14 -25 -19 -21 -12 4 7 1 12 -9 12 -9 0 -13 5
-10 10 5 8 11 8 20 0 9 -8 14 -7 18 3 3 8 -1 13 -11 12 -18 -1 -63 -24 -49
-25 5 0 5 -5 2 -10 -5 -8 -11 -7 -21 1 -7 6 -20 9 -27 6 -17 -6 -38 26 -27 42
5 9 9 7 12 -7 4 -14 13 -19 33 -17 15 2 29 6 33 9 3 3 -9 4 -26 2 -17 -2 -29
0 -27 4 3 4 24 7 47 6 24 -1 70 6 103 14 33 9 68 15 78 12 17 -3 20 -31 4 -43
-4 -3 7 -6 25 -6 18 0 27 2 20 5 -6 2 -10 7 -7 12 3 5 -7 18 -21 29 -19 15
-22 21 -10 21 9 0 16 5 16 11 0 5 4 8 9 5 5 -3 14 1 22 10 22 27 49 37 65 23
8 -6 14 -16 14 -22 0 -7 -4 -7 -12 1 -7 7 -17 12 -22 12 -6 0 -4 -5 5 -10 11
-6 15 -20 13 -40 -2 -20 0 -29 7 -25 5 4 7 16 3 28 -6 19 -5 20 8 9 13 -10 19
-10 32 3 18 19 21 35 5 35 -5 0 -8 -3 -6 -7 3 -5 -1 -14 -9 -20 -7 -7 -15 -9
-19 -4 -3 5 -1 13 5 16 6 4 2 14 -12 24 l-22 18 22 28 c18 22 22 24 22 10 0
-21 10 -14 14 9 1 8 17 31 34 51 18 19 30 35 27 35 -3 0 7 18 21 40 15 22 27
40 28 40 1 0 2 -9 3 -20 1 -11 -3 -19 -10 -17 -25 5 -14 -31 23 -73 22 -24 40
-50 40 -58 0 -8 -16 5 -35 28 -19 23 -35 37 -35 31 0 -5 12 -22 26 -36 14 -14
24 -29 21 -32 -4 -3 -19 8 -35 24 -16 16 -34 27 -41 25 -6 -2 -9 3 -5 12 3 9
10 14 14 11 10 -6 7 22 -4 32 -4 4 -6 3 -5 -2 2 -6 -11 -32 -29 -60 -26 -40
-29 -51 -18 -57 22 -12 49 1 36 17 -6 7 -7 15 -3 17 4 3 2 3 -5 1 -8 -1 -12 2
-10 8 2 6 7 10 11 10 4 -1 14 -1 22 -1 10 0 14 -7 12 -22 -2 -13 -2 -17 0 -10
6 15 13 15 36 -2 13 -10 15 -16 6 -21 -6 -4 -16 -1 -21 6 -8 11 -9 10 -4 -4 4
-14 1 -16 -19 -11 -18 4 -27 1 -31 -10 -6 -16 -8 -16 -25 -1 -11 11 -25 14
-40 10 -16 -5 -19 -4 -14 5 6 9 4 11 -5 5 -10 -6 -9 -11 5 -22 11 -7 24 -13
29 -13 6 0 4 5 -4 10 -13 8 -13 10 2 10 9 0 22 -8 27 -17 10 -17 12 -17 25 0
7 9 19 17 26 17 7 0 -1 -13 -18 -29 -16 -16 -28 -32 -25 -35 4 -3 12 3 20 13
19 28 96 78 115 75 21 -3 14 19 -19 64 -25 34 -17 44 13 15 17 -17 18 -17 11
0 -10 27 18 32 44 8 13 -11 25 -19 27 -16 6 6 -18 29 -45 43 -17 9 -22 9 -27
-3 -3 -8 -11 -15 -17 -15 -8 0 -8 4 1 15 6 8 9 23 5 34 -4 15 -2 20 7 18 7 -2
10 -2 5 0 -4 3 -5 9 -1 14 3 5 0 9 -5 9 -6 0 -11 -6 -11 -12 0 -9 -4 -8 -11 2
-9 12 -9 11 -4 -5 17 -47 16 -54 -4 -64 -17 -9 -22 -8 -31 8 -13 26 -13 28 5
28 9 0 14 -6 11 -13 -3 -8 0 -11 9 -8 12 5 12 10 2 27 -7 12 -12 29 -11 37 1
8 2 21 3 28 0 6 9 12 19 12 15 0 15 2 2 11 -13 9 -13 10 2 6 9 -3 19 -1 21 6
2 7 4 0 3 -14 0 -16 -6 -25 -12 -22 -7 2 -14 1 -17 -4 -3 -4 5 -9 18 -9 17 -1
28 7 38 28 14 29 13 32 -11 59 -17 20 -32 27 -44 23 -10 -3 -18 -1 -18 4 0 16
27 21 39 9 9 -9 11 -8 5 6 -4 11 -13 16 -24 12 -10 -3 -21 -1 -25 5 -4 6 -13
7 -23 1 -9 -4 -24 -6 -32 -3 -8 2 -12 2 -9 -2 11 -11 49 -15 49 -5 0 6 5 7 10
4 14 -9 1 -27 -15 -21 -8 3 -15 0 -18 -7 -2 -8 -10 -6 -22 7 -18 18 -19 18
-36 -3 -9 -11 -22 -21 -28 -21 -7 0 -3 10 9 22 22 24 26 38 9 38 -5 0 -8 -4
-4 -9 3 -5 -6 -18 -20 -29 l-26 -20 22 -7 c16 -5 26 -2 38 14 l16 21 33 -31
c17 -16 32 -26 32 -22 0 5 10 9 23 10 20 2 19 0 -6 -13 -26 -14 -30 -14 -44 3
-14 17 -14 17 -9 0 3 -11 2 -16 -4 -12 -6 3 -10 2 -10 -3 0 -5 -17 -8 -37 -7
-21 0 -42 -1 -48 -4 -5 -3 -106 -6 -223 -6 -161 0 -212 3 -212 12 0 14 -58 11
-69 -4 -6 -9 -81 -14 -81 -5 0 2 9 17 21 33 11 16 16 29 10 29 -5 0 -13 -9
-16 -20 -3 -11 -11 -20 -16 -20 -5 0 -9 -8 -9 -17 0 -14 -2 -15 -12 -4 -11 10
-9 15 5 26 10 7 14 16 9 19 -5 3 -16 -7 -23 -22 -8 -15 -20 -28 -27 -29 -16
-4 -16 14 1 20 9 4 9 6 -1 6 -7 1 -15 -6 -18 -14 -4 -8 -10 -12 -16 -9 -5 3
-4 11 3 20 8 10 8 14 0 14 -10 0 -15 -13 -12 -32 0 -3 -21 -4 -47 -1 -67 6
-76 8 -90 17 -6 4 -18 4 -24 0 -8 -4 -10 -3 -5 2 13 14 78 14 71 0 -3 -6 2 -2
10 8 20 25 20 30 0 47 -9 7 -18 9 -22 3 -4 -5 -20 -11 -37 -12 -16 -2 -41 -10
-53 -19 -13 -8 -26 -12 -29 -9 -3 3 6 10 20 17 24 11 30 41 11 58 -4 3 -4 -2
-1 -11 6 -18 -39 -72 -53 -63 -3 2 -6 -7 -6 -21 0 -13 4 -24 8 -24 8 0 12 16
9 33 -1 5 3 6 8 3 8 -5 8 -27 1 -46 -1 -3 -2 -8 -1 -12 0 -5 -6 -8 -15 -8 -8
0 -12 5 -9 10 3 6 1 10 -5 10 -8 0 -9 -7 -5 -17 4 -10 7 -27 7 -38 -1 -15 3
-13 18 10 10 16 16 34 13 39 -3 6 0 6 7 -1 11 -10 10 -17 -3 -37 -16 -23 -16
-25 3 -31 11 -4 28 -18 37 -32 16 -24 16 -26 -1 -38 -9 -7 -13 -16 -8 -19 5
-3 15 6 22 19 12 22 11 28 -10 50 -22 23 -22 27 -8 41 11 11 18 12 22 5 4 -6
2 -11 -3 -11 -6 0 -11 -5 -11 -10 0 -6 11 -3 26 6 17 12 28 14 35 7 8 -8 7
-13 -2 -18 -8 -6 -10 -4 -4 4 5 9 1 9 -14 -1 -23 -14 -24 -17 -13 -35 5 -8 13
-9 22 -3 12 8 12 10 -4 10 -24 0 -13 13 15 17 16 2 20 -1 15 -13 -4 -9 -1 -23
5 -30 13 -16 -2 -19 -17 -4 -6 6 -15 5 -24 -1 -13 -9 -12 -10 2 -5 10 3 20 1
23 -4 4 -6 13 -10 21 -10 17 0 19 27 2 33 -7 2 -10 8 -6 12 11 11 47 -37 40
-54 -3 -8 -1 -12 5 -8 6 4 22 -7 36 -23 l26 -29 -30 -25 c-17 -15 -27 -26 -23
-26 4 0 16 7 26 17 20 18 24 6 5 -17 -15 -20 -35 -19 -47 0 -5 8 -10 10 -10 4
0 -5 7 -19 15 -30 8 -10 15 -14 15 -7 0 7 10 10 25 7 17 -3 27 1 31 11 3 8 10
12 15 9 5 -3 9 0 9 5 0 16 -20 13 -26 -4 -4 -8 -10 -15 -15 -15 -6 0 -5 9 1
20 6 11 8 25 5 30 -3 6 -2 10 4 10 5 0 13 -5 16 -10 4 -6 28 -25 55 -43 l49
-33 -18 -27 c-10 -15 -22 -24 -26 -20 -5 5 -3 0 4 -10 8 -9 11 -21 7 -24 -4
-4 -11 -1 -16 7 -5 8 -12 11 -16 8 -11 -12 -46 12 -40 27 3 9 0 12 -9 8 -8 -3
-12 -9 -9 -14 3 -5 -2 -6 -10 -3 -13 5 -12 9 7 25 19 15 24 16 33 4 6 -8 15
-15 19 -15 4 0 1 7 -6 16 -12 15 -11 16 7 10 26 -8 54 18 30 27 -10 4 -13 1
-9 -9 3 -7 0 -14 -6 -14 -6 0 -11 5 -11 11 0 8 -6 7 -17 -2 -15 -12 -16 -12
-10 6 6 16 3 14 -15 -6 -24 -28 -58 -45 -58 -29 0 5 9 12 21 15 11 4 18 9 15
12 -3 3 -16 -1 -29 -10 -19 -12 -27 -13 -46 -2 -15 8 -20 15 -12 19 6 4 11 2
11 -3 0 -6 5 -11 11 -11 6 0 4 9 -4 21 -17 24 -11 63 9 55 7 -3 23 4 36 16
l23 20 -27 -16 c-27 -16 -28 -16 -25 6 2 12 10 24 17 26 8 3 10 0 5 -8 -5 -9
-4 -11 4 -6 6 4 9 12 6 17 -8 12 -35 12 -36 -1 -1 -5 -2 -14 -3 -19 0 -6 -7
-16 -15 -23 -12 -11 -13 -10 -8 5 9 24 0 21 -14 -4 -8 -15 -8 -19 0 -15 6 4
11 0 11 -9 0 -9 -4 -14 -9 -11 -5 3 -11 -1 -15 -9 -3 -8 -13 -15 -21 -15 -10
0 -13 5 -9 12 5 8 2 9 -10 5 -11 -5 -15 -3 -10 5 5 8 2 9 -9 5 -11 -4 -22 2
-32 16 -8 12 -15 17 -15 12 0 -5 -20 12 -45 37 -24 25 -45 45 -47 44 -2 0 0 3
5 9 5 6 10 6 15 -2 6 -9 11 -7 20 7 7 12 8 20 2 20 -5 0 -10 -4 -10 -8 0 -4
-12 -8 -26 -7 -29 0 -55 30 -47 53 5 12 10 11 28 -10 17 -20 26 -23 40 -16 12
7 21 6 32 -5 13 -13 13 -17 -7 -37 l-22 -22 38 -28 c21 -15 44 -25 52 -22 12
4 12 6 -1 14 -10 5 -14 16 -10 26 5 14 3 13 -10 -3 -13 -16 -17 -17 -31 -6
-17 14 -23 46 -6 36 5 -3 10 -4 10 -1 0 2 3 11 6 19 3 8 -2 22 -11 31 -11 11
-12 16 -4 16 7 0 20 -8 29 -17 16 -17 16 -20 -2 -45 -11 -16 -15 -28 -9 -28 5
0 13 9 16 20 3 11 11 20 16 20 16 0 10 18 -13 40 -15 14 -30 19 -45 15 -18 -4
-21 -2 -16 12 6 15 5 16 -9 3 -11 -11 -12 -17 -4 -22 7 -5 5 -8 -6 -8 -9 0
-19 3 -21 8 -7 11 29 52 38 44 4 -4 2 3 -4 16 -6 12 -9 22 -5 22 4 0 5 3 1 6
-3 4 -14 -2 -24 -12 -17 -17 -17 -17 0 -11 22 8 22 -4 -2 -32 -11 -12 -22 -18
-25 -12 -4 5 2 14 11 20 10 6 14 11 9 11 -6 0 -21 -10 -34 -22 l-24 -23 7 24
c4 15 3 26 -5 31 -20 13 -25 82 -6 96 15 10 15 12 -3 17 -19 5 -20 9 -11 52 1
6 2 12 1 15 -1 3 -4 48 -7 100 -2 52 -6 108 -8 123 -3 19 2 34 17 49 12 11 18
18 12 15 -5 -3 -10 6 -10 19 0 13 4 24 9 24 5 0 2 8 -5 17 -12 15 -12 16 3 10
10 -3 20 -1 24 5 4 6 3 8 -3 5 -6 -4 -18 0 -28 7 -18 13 -18 14 2 39 11 15 23
24 27 22 3 -3 2 0 -3 6 -12 15 -2 41 12 32 7 -4 8 0 3 12 -4 11 -2 22 6 26 9
6 13 30 12 74 -2 54 1 65 15 65 12 0 13 2 3 8 -18 12 2 66 20 56 10 -5 10 -4
1 6 -8 9 -6 20 9 46 11 19 25 31 31 27 6 -3 7 -1 3 5 -4 7 10 20 35 32 22 12
38 17 35 11 -4 -5 -2 -13 4 -16 6 -4 10 -3 9 2 -4 23 2 35 16 29 8 -3 15 -2
15 2 0 14 114 12 122 -1 6 -9 8 -9 8 0 0 16 48 -3 68 -27 9 -10 11 -10 6 -1
-4 9 -2 12 7 9 8 -3 13 -10 12 -15 -1 -6 10 -8 24 -5 22 4 25 2 19 -13 -5 -15
-4 -16 8 -6 9 7 25 9 42 5 39 -10 274 -11 274 -1 0 4 13 7 29 7 16 0 54 13 84
29 31 16 58 27 61 23 3 -3 6 -1 6 5 0 6 9 13 21 16 20 5 20 5 2 -16 -18 -22
-18 -22 3 -4 11 9 24 14 28 10 4 -4 4 0 1 9 -5 13 1 17 27 20 18 2 37 2 42 -1
4 -2 20 -5 35 -6z m415 -544 c7 -14 12 -33 11 -41 0 -8 3 -18 8 -21 5 -3 2 -9
-7 -12 -9 -4 -17 1 -21 12 -7 22 -42 34 -52 19 -3 -7 -1 -8 5 -4 8 5 11 0 9
-15 -2 -13 -9 -25 -16 -27 -8 -3 -6 -9 6 -19 10 -8 11 -11 3 -7 -10 5 -8 -1 5
-16 11 -13 15 -20 8 -17 -6 4 -14 3 -18 -3 -3 -5 -1 -10 6 -10 7 0 5 -8 -7
-21 -10 -11 -14 -20 -9 -19 21 5 36 0 30 -10 -3 -5 -13 -7 -23 -4 -13 5 -14 4
-3 -4 7 -5 10 -16 7 -23 -4 -8 -1 -6 7 4 10 12 17 14 22 8 3 -6 1 -11 -5 -11
-6 0 -9 -4 -5 -10 3 -5 -3 -18 -14 -29 -11 -11 -15 -22 -10 -25 5 -2 4 -3 -3
-2 -9 2 -13 25 -14 72 -1 38 -2 69 -4 69 -1 0 -3 11 -6 24 -3 17 0 22 10 18
10 -4 13 -1 9 8 -3 8 -10 12 -17 8 -6 -3 -4 2 5 13 11 13 15 30 12 53 -5 27
-3 32 8 26 12 -8 12 -6 0 8 -10 13 -11 20 -2 31 17 20 50 8 65 -23z m-1666
-14 c8 -117 8 -126 -4 -131 -13 -5 -24 2 -24 16 0 5 4 7 9 3 5 -3 13 0 17 6 5
8 3 9 -6 4 -9 -6 -11 -4 -5 5 6 9 4 11 -6 5 -12 -7 -12 -6 -1 7 15 19 11 54
-8 71 -12 10 -12 9 -3 -3 9 -11 8 -20 -3 -34 -8 -11 -14 -14 -14 -7 0 7 -6 11
-12 9 -7 -3 -13 -11 -13 -18 0 -7 -5 -15 -12 -17 -7 -3 -11 7 -11 26 1 17 5
28 9 25 5 -3 6 2 3 10 -3 9 -1 16 6 16 6 0 8 5 4 12 -5 8 -2 9 9 5 9 -3 16 -3
16 1 -3 16 2 19 24 15 15 -3 24 -12 25 -26z m1647 -58 c-6 -9 8 -13 33 -10 6
1 12 -3 12 -9 0 -5 -4 -10 -9 -10 -4 0 -7 -11 -6 -25 2 -14 -1 -23 -7 -19 -5
3 -8 0 -7 -7 5 -22 -10 -69 -21 -69 -6 0 -9 3 -9 8 3 20 -2 32 -12 26 -6 -3
-4 5 6 19 11 17 13 27 5 32 -6 3 -8 10 -5 15 3 5 1 11 -5 15 -6 4 -7 12 -3 18
4 7 8 15 9 20 1 4 2 10 3 13 0 3 6 2 11 -1 6 -4 8 -11 5 -16z m-1671 -13 c-4
-10 -13 -15 -23 -12 -11 4 -10 2 3 -9 11 -8 16 -15 10 -16 -5 0 -18 -2 -28 -4
-31 -6 -39 6 -17 22 12 8 18 19 14 26 -4 7 0 6 10 -2 14 -11 18 -11 23 3 4 9
8 15 10 13 3 -2 2 -12 -2 -21z m-3 -63 c6 -6 19 -9 28 -6 11 4 10 1 -4 -10
-18 -14 -21 -14 -33 6 -9 15 -12 16 -8 4 4 -12 2 -16 -7 -12 -6 3 -4 0 5 -7
15 -11 15 -13 0 -26 -12 -10 -10 -10 9 1 16 10 31 12 40 6 12 -7 12 -9 -1 -9
-13 0 -13 -1 0 -10 10 -6 11 -10 3 -10 -7 0 -13 -5 -13 -11 0 -5 4 -8 8 -5 5
3 9 -2 9 -10 0 -8 -6 -13 -13 -10 -8 3 -11 0 -7 -9 3 -8 8 -13 12 -11 4 3 7
-6 7 -19 0 -14 -6 -27 -13 -29 -10 -4 -11 -1 -3 14 7 13 7 21 -2 26 -6 4 -8 3
-4 -4 3 -6 2 -13 -3 -16 -5 -3 -11 1 -15 9 -3 8 -1 15 4 15 6 0 10 4 10 10 0
5 -8 6 -17 3 -17 -7 -17 -6 0 11 9 10 15 22 12 27 -4 5 -1 9 5 9 6 0 8 5 5 11
-9 13 -15 7 -20 -18 -2 -10 -4 -20 -4 -22 -1 -2 -10 4 -20 13 -11 10 -18 26
-16 37 2 10 -1 19 -7 19 -7 0 -3 7 8 15 14 11 15 14 3 9 -10 -3 -20 0 -25 7
-5 9 -2 10 9 6 10 -3 17 -2 17 2 0 12 27 8 41 -6z m399 -284 c0 -5 -4 -9 -10
-9 -5 0 -10 7 -10 16 0 8 5 12 10 9 6 -3 10 -10 10 -16z m320 -51 c0 -4 -12
-8 -27 -8 -19 0 -24 3 -15 8 17 11 42 11 42 0z m-402 -29 c5 -11 11 -20 15
-20 11 1 9 -13 -2 -17 -6 -2 -14 3 -17 12 -5 12 -10 10 -30 -12 -13 -15 -24
-22 -24 -16 0 6 7 17 15 24 8 7 15 21 15 31 0 25 19 24 28 -2z m196 -11 c10 9
646 12 646 2 0 -4 -12 -11 -27 -15 -16 -5 -32 -9 -38 -11 -5 -2 -23 -6 -39 -9
-16 -3 -34 -9 -40 -12 -6 -4 -4 2 4 13 14 18 14 18 -3 4 -16 -12 -44 -19 -92
-22 -5 0 -19 3 -30 7 -15 5 -17 5 -5 -3 10 -8 -13 -10 -80 -8 -170 5 -163 4
-156 24 5 14 4 14 -9 -2 -14 -18 -20 -15 -16 8 1 5 -5 4 -13 -3 -16 -14 -56
-6 -68 13 -6 8 -8 8 -8 -1 0 -9 -8 -9 -32 -1 -18 6 -37 15 -43 20 -5 5 2 5 16
-1 15 -5 30 -7 33 -3z m726 -199 c0 -5 -4 -9 -10 -9 -5 0 -10 7 -10 16 0 8 5
12 10 9 6 -3 10 -10 10 -16z m-476 -50 c-3 -5 0 -9 5 -9 6 0 11 4 11 9 0 5 11
9 25 9 13 0 23 -4 20 -8 -2 -3 2 -7 10 -7 8 0 12 4 9 9 -7 11 3 10 28 -3 13
-7 18 -7 14 -1 -4 6 2 10 14 9 11 -1 20 -5 20 -9 0 -4 5 -8 11 -8 5 0 7 5 4
10 -3 6 -1 10 4 10 6 0 11 -6 11 -12 0 -9 3 -9 8 -3 8 12 92 14 92 3 0 -8 -15
-11 -25 -5 -2 1 -10 -5 -17 -14 -27 -33 -156 -51 -262 -37 -70 10 -159 48
-133 57 27 10 157 9 151 0z m-544 -4 c0 -3 -9 -14 -20 -25 -14 -14 -20 -16
-20 -6 0 14 -23 16 -36 3 -11 -10 -24 -8 -24 4 0 5 4 8 9 4 5 -3 12 -1 16 5 4
6 10 8 15 5 5 -3 11 -1 15 5 6 10 45 14 45 5z m36 -15 c8 -8 5 -23 -9 -50 -10
-22 -22 -40 -26 -40 -4 0 -7 -9 -8 -20 -1 -11 -9 -35 -17 -52 -19 -37 -19 -38
-5 -38 5 0 7 5 4 10 -3 6 1 13 9 16 9 3 14 10 11 14 -3 4 2 10 10 13 10 4 12
1 8 -10 -4 -10 -2 -14 4 -10 7 4 10 0 8 -10 -2 -10 -4 -21 -4 -24 -2 -16 -35
-18 -61 -4 -31 16 -54 20 -31 6 11 -7 11 -16 -3 -56 -8 -26 -13 -52 -9 -58 3
-5 2 -7 -4 -4 -5 4 -16 -5 -24 -19 -11 -22 -11 -27 1 -36 13 -8 13 -9 0 -5
-21 6 -57 -41 -37 -49 15 -5 19 -34 5 -34 -4 0 -8 5 -8 12 0 12 -15 2 -15 -10
-1 -18 -27 -52 -35 -47 -6 3 -9 -4 -9 -17 1 -13 -8 -45 -21 -73 -38 -85 -43
-100 -41 -108 1 -5 -3 -6 -8 -3 -5 4 -8 19 -5 34 12 79 16 92 25 92 6 0 8 4 4
10 -6 9 13 50 28 61 5 3 8 9 8 13 -3 24 1 27 15 10 15 -18 15 -18 4 3 -5 12
-18 27 -28 32 -9 6 -11 11 -4 11 6 0 12 5 12 11 0 5 -6 7 -12 3 -10 -6 -10 -5
-1 8 7 8 10 17 7 21 -3 3 1 4 10 3 9 -1 16 -6 15 -12 0 -5 -4 -8 -8 -7 -4 1
-7 -7 -7 -17 0 -17 2 -17 21 3 12 12 21 32 20 44 -1 12 2 20 6 17 5 -3 9 3 9
13 0 11 6 25 12 31 10 10 10 15 -2 22 -13 9 -13 10 1 10 13 0 59 65 61 87 0 5
9 25 20 46 13 26 24 37 34 33 8 -3 14 -1 14 3 0 5 -5 11 -11 13 -8 3 -6 14 5
36 10 19 21 30 28 26 7 -4 8 -3 4 5 -8 13 1 51 13 51 4 0 12 -5 17 -10z m134
1 c0 -5 -7 -11 -15 -15 -15 -5 -20 5 -8 17 9 10 23 9 23 -2z m250 -52 c0 -5
-3 -8 -7 -8 -28 5 -33 -1 -22 -23 7 -13 19 -29 28 -36 14 -12 14 -13 -4 -7
-11 4 -25 8 -32 8 -7 0 -9 5 -6 10 3 5 0 12 -6 16 -8 5 -5 15 10 34 19 25 39
28 39 6z m-555 -21 c-2 -18 -4 -34 -5 -35 -1 -2 -3 -7 -4 -12 0 -5 -5 -13 -9
-18 -9 -8 0 75 9 89 9 14 11 8 9 -24z m583 11 c-8 -5 3 -7 29 -5 23 2 47 -1
55 -5 7 -5 9 -9 3 -10 -5 0 -19 -2 -30 -4 -11 -2 -23 1 -27 8 -5 8 -8 5 -8 -8
0 -36 -19 -45 -46 -22 -23 19 -33 48 -16 46 19 -3 33 2 27 11 -3 6 1 7 10 3
13 -5 14 -7 3 -14z m306 -24 c-4 -8 -11 -12 -16 -9 -6 4 -5 10 3 15 19 12 19
11 13 -6z m-209 -15 c3 -5 0 -12 -6 -16 -8 -5 -9 -3 -4 6 5 9 2 10 -14 5 -11
-3 -21 -3 -21 2 0 12 38 14 45 3z m-605 -27 c0 -3 -7 -3 -15 1 -8 3 -15 1 -15
-3 0 -5 6 -11 12 -13 7 -3 2 -7 -10 -10 -12 -4 -20 -3 -19 0 2 4 7 15 10 24 5
15 37 16 37 1z m346 -4 c16 -7 38 -14 49 -16 10 -2 22 -7 25 -11 5 -7 9 -8 56
-10 14 -1 23 -5 21 -9 -3 -5 12 -9 34 -9 89 -4 109 -6 109 -16 0 -6 -7 -8 -15
-5 -8 4 -17 2 -20 -3 -4 -6 -41 -10 -83 -9 -64 1 -81 5 -102 22 -24 21 -24 21
-7 1 18 -22 23 -39 8 -30 -5 4 -11 3 -13 -2 -5 -11 -85 -72 -95 -72 -4 0 -14
-9 -21 -21 -7 -12 -16 -18 -19 -15 -3 3 -12 -2 -19 -12 -11 -14 -11 -10 -2 26
6 23 16 42 22 42 6 0 4 5 -4 10 -8 5 -10 10 -4 10 6 0 10 11 8 25 -1 14 3 31
10 38 7 7 11 18 8 25 -6 19 7 64 17 58 4 -3 21 -11 37 -17z m-162 -5 c9 -3 16
-10 16 -16 0 -5 -4 -6 -10 -3 -5 3 -10 1 -10 -5 0 -6 -5 -8 -12 -4 -9 6 -9 9
1 12 11 4 11 6 0 13 -16 10 -8 12 15 3z m-67 -56 c-2 -20 2 -23 31 -20 29 2
37 -5 33 -30 -2 -14 17 -8 22 6 6 14 30 16 43 3 4 -3 -3 -5 -15 -2 -11 2 -21
0 -21 -6 0 -5 8 -9 18 -9 10 0 13 -3 6 -8 -6 -4 -10 -15 -8 -25 1 -9 -2 -15
-7 -11 -5 3 -6 10 -3 16 4 6 -2 8 -17 3 -16 -4 -20 -3 -11 3 11 7 10 10 -3 16
-9 3 -13 11 -9 17 5 8 3 9 -5 5 -7 -5 -10 -14 -7 -22 3 -8 1 -13 -4 -11 -5 1
-16 -7 -25 -18 -16 -19 -16 -19 -5 4 8 16 9 21 1 17 -6 -4 -11 -3 -11 2 0 21
-30 21 -41 0 -8 -15 -8 -18 0 -14 6 4 11 1 12 -6 0 -10 2 -10 6 0 2 6 9 12 15
12 6 0 8 -7 5 -15 -4 -8 -2 -17 4 -20 5 -4 7 -11 3 -16 -3 -5 -10 -6 -16 -3
-7 4 -8 2 -4 -4 9 -15 -23 -84 -35 -76 -5 3 -6 -2 -3 -10 3 -8 -2 -26 -11 -40
-17 -26 -14 -63 4 -51 5 3 13 0 17 -6 4 -7 3 -9 -2 -6 -6 3 -15 -3 -22 -14
-13 -21 -3 -26 16 -7 9 9 12 9 12 -1 0 -7 5 -9 10 -6 6 4 7 11 4 17 -4 7 -2 8
5 4 17 -11 -6 -37 -26 -29 -11 4 -14 2 -9 -5 10 -16 -5 -15 -27 2 -15 12 -16
14 -2 20 17 6 21 26 4 26 -5 0 -8 -3 -6 -7 2 -5 -3 -15 -12 -23 -15 -14 -20
-13 -50 7 -19 13 -31 23 -27 23 4 0 4 5 0 11 -4 8 -9 7 -15 -2 -6 -10 -8 -7
-6 8 0 13 7 25 15 28 7 3 10 9 7 15 -3 5 -1 10 4 10 14 0 14 -17 1 -25 -12 -7
-13 -25 -2 -25 4 0 13 14 21 31 8 18 18 28 27 25 7 -3 16 0 20 6 4 7 3 8 -4 4
-13 -8 -15 7 -6 41 4 13 10 20 15 17 5 -3 9 -2 9 1 0 3 -15 12 -32 20 -20 9
-26 14 -15 15 10 0 15 4 12 10 -3 6 1 7 10 3 13 -5 14 -7 3 -14 -10 -7 -9 -9
5 -9 10 0 22 11 27 26 9 23 12 25 28 13 15 -12 16 -12 5 2 -10 12 -8 26 10 72
23 59 39 74 34 35z m649 -43 c-2 -7 -14 -19 -26 -25 -20 -11 -21 -10 -11 9 14
25 14 31 0 31 -5 0 -8 -4 -4 -9 6 -10 -13 -26 -21 -18 -9 9 19 45 32 40 6 -2
16 2 20 9 7 10 9 9 12 -5 2 -10 1 -24 -2 -32z m-81 5 c3 -6 -1 -7 -9 -4 -18 7
-21 14 -7 14 6 0 13 -4 16 -10z m-65 -22 c0 -4 -5 -18 -11 -32 -9 -19 -9 -29
-1 -39 9 -10 8 -14 -3 -14 -8 0 -12 5 -9 11 3 6 -2 2 -10 -8 -9 -11 -16 -24
-16 -29 0 -5 -7 -6 -16 -3 -8 3 -12 2 -9 -3 7 -13 -35 -25 -46 -14 -5 5 5 37
23 75 30 63 33 66 65 65 18 -1 33 -5 33 -9z m-165 -8 c4 -6 11 -8 16 -5 5 4
12 0 15 -9 3 -8 12 -12 20 -9 8 3 14 0 14 -7 0 -6 -4 -9 -9 -6 -5 4 -12 0 -14
-6 -4 -8 -8 -4 -13 10 -4 13 -10 20 -13 15 -3 -5 -14 -1 -23 9 -10 10 -14 18
-9 18 6 0 13 -5 16 -10z m-545 -10 c8 -5 11 -10 5 -10 -5 0 -17 5 -25 10 -8 5
-10 10 -5 10 6 0 17 -5 25 -10z m914 -5 c17 -13 16 -18 -4 -17 -3 0 -6 -14 -7
-31 -1 -17 -6 -33 -11 -36 -11 -8 -26 -43 -23 -55 1 -5 -5 -3 -14 4 -9 7 -15
9 -14 4 4 -23 -2 -26 -21 -9 -15 14 -17 22 -9 36 5 11 7 25 3 32 -5 7 -2 7 9
-2 15 -12 17 -12 11 4 -6 14 -4 16 6 10 9 -5 11 -4 6 4 -10 16 16 71 34 71 8
0 24 -7 34 -15z m-469 -41 c-19 -14 -18 -15 13 -12 19 1 36 6 38 10 9 14 44
-12 37 -28 -3 -8 3 -21 13 -30 18 -14 18 -14 -1 -7 -18 6 -19 5 -5 -13 14 -18
14 -18 -2 -5 -10 7 -15 18 -12 25 3 6 -6 -2 -19 -18 -18 -20 -27 -25 -32 -16
-5 8 -4 11 2 7 5 -3 10 0 10 8 0 8 -2 13 -5 10 -9 -8 -33 25 -26 36 5 9 -1 10
-22 5 -21 -5 -25 -4 -14 4 8 5 11 10 5 10 -5 0 -1 7 9 15 11 8 22 15 25 15 3
0 -3 -7 -14 -16z m-227 -66 c11 -14 10 -16 -5 -14 -10 2 -17 6 -15 9 1 4 2 12
2 19 0 6 1 9 3 7 1 -2 8 -12 15 -21z m716 -3 c10 -8 23 -12 27 -9 5 3 9 -2 9
-11 0 -10 5 -13 12 -9 6 4 8 3 4 -4 -3 -6 -1 -23 6 -39 6 -15 12 -30 12 -33 5
-23 26 -42 40 -37 10 4 20 -1 26 -13 8 -16 8 -18 -5 -14 -8 3 -12 11 -8 17 3
6 1 7 -5 3 -8 -4 -8 -15 -2 -31 10 -27 -4 -44 -33 -40 -9 2 -15 -1 -11 -6 3
-5 10 -6 16 -3 8 5 9 1 5 -12 -7 -18 -6 -18 7 -1 18 23 31 21 50 -8 9 -14 13
-25 10 -25 -4 0 1 -9 11 -20 10 -11 15 -20 11 -20 -4 0 2 -13 13 -29 l20 -28
-25 -13 c-16 -9 -20 -16 -13 -21 6 -4 8 -12 4 -19 -6 -9 -3 -9 14 0 18 9 20
14 10 26 -7 8 -7 14 -1 14 5 0 13 -7 16 -16 3 -8 11 -12 17 -9 6 4 9 1 8 -6
-2 -8 2 -23 8 -35 10 -17 9 -23 -7 -36 -10 -9 -21 -14 -24 -11 -3 4 -6 1 -6
-4 0 -6 6 -14 13 -16 8 -4 7 -6 -4 -6 -16 -1 -63 84 -54 98 2 5 -4 16 -14 25
-11 10 -25 31 -31 47 -13 30 -24 36 -35 19 -3 -5 -1 -10 5 -10 6 0 8 -5 4 -12
-6 -9 -9 -9 -11 -1 -3 7 -11 9 -19 6 -13 -5 -13 -7 -2 -15 10 -8 10 -9 -1 -6
-20 6 -26 28 -8 28 7 0 21 8 30 18 15 16 15 21 2 38 -8 10 -15 27 -15 37 0 10
-7 20 -15 23 -8 4 -13 10 -10 14 2 4 -6 8 -19 8 -19 0 -23 -5 -21 -20 2 -10 0
-16 -6 -13 -5 4 -9 1 -9 -4 0 -6 -4 -11 -8 -11 -5 0 -9 7 -9 15 0 8 4 12 8 9
4 -2 10 0 14 5 3 6 -4 8 -15 6 -11 -2 -18 0 -15 6 4 5 13 9 21 9 8 0 12 5 9
10 -4 6 -12 7 -18 4 -7 -4 -8 -3 -4 2 5 5 12 9 15 9 4 0 14 4 22 10 13 7 13 6
2 -7 -10 -13 -10 -17 3 -22 12 -4 14 0 11 19 -3 14 -7 29 -10 34 -3 5 3 7 14
4 11 -3 20 -1 21 3 0 5 2 17 4 27 3 14 0 16 -10 7 -9 -8 -15 -8 -18 0 -3 6 -4
5 -2 -2 1 -7 8 -12 14 -10 7 1 10 -2 6 -7 -8 -13 -55 8 -55 24 0 7 -7 18 -15
25 -9 7 -14 18 -12 24 2 6 -3 17 -10 24 -10 11 -11 17 -2 28 14 17 19 17 43
-1z m-468 -20 c2 -11 7 -21 12 -23 6 -2 1 -20 -9 -42 -11 -21 -19 -44 -19 -50
0 -5 -4 -10 -10 -10 -5 0 -10 -9 -10 -20 0 -16 -7 -20 -31 -20 -21 0 -28 4
-23 13 4 6 3 8 -1 4 -15 -13 -14 -36 1 -30 10 4 12 0 7 -13 -4 -11 -3 -15 4
-11 6 4 14 0 17 -9 3 -8 10 -13 15 -9 5 3 13 0 17 -6 4 -8 3 -9 -4 -5 -7 4
-12 3 -12 -2 0 -16 13 -22 27 -11 10 9 13 8 13 0 0 -7 4 -10 9 -6 16 9 22 -12
6 -25 -7 -6 -11 -18 -8 -26 7 -19 24 -7 21 14 -2 10 3 16 10 14 8 -1 11 2 7 9
-5 7 -1 10 11 7 15 -3 18 -11 16 -36 -2 -19 1 -32 8 -32 7 0 9 8 5 19 -7 23
13 39 21 17 3 -9 10 -14 14 -11 4 3 19 -4 31 -16 13 -11 18 -17 10 -13 -11 5
-13 3 -8 -10 4 -10 3 -15 -3 -11 -6 3 -10 2 -10 -4 0 -28 19 -14 45 35 16 30
32 54 35 54 4 0 6 14 6 30 0 28 -16 45 -16 18 -1 -7 -7 -2 -14 11 -7 13 -15
20 -18 15 -3 -5 -3 -2 -1 6 2 10 -2 8 -12 -4 -14 -19 -15 -19 -15 10 0 22 3
26 10 14 5 -8 10 -12 10 -8 0 4 15 -1 33 -12 42 -26 44 -26 57 15 6 19 15 35
20 35 5 0 7 9 5 20 -2 11 1 20 7 20 5 0 8 7 4 15 -3 8 -1 15 4 15 16 0 12 27
-4 33 -11 5 -14 -1 -11 -24 4 -32 -10 -40 -17 -11 -3 10 -13 19 -22 19 -10 0
-15 -6 -12 -13 3 -8 0 -11 -9 -8 -17 7 -28 34 -12 30 7 -1 8 -1 4 2 -4 2 -2
11 5 20 12 14 11 14 -10 1 -12 -8 -20 -19 -18 -26 3 -6 -2 -14 -10 -17 -10 -4
-12 -2 -8 6 4 6 3 8 -3 5 -6 -4 -11 -17 -11 -29 0 -33 -52 -139 -65 -131 -5 3
-7 1 -4 -5 8 -12 -2 -42 -13 -42 -11 0 -5 62 9 88 8 15 8 23 -1 28 -6 4 -8 3
-4 -4 8 -13 -18 -10 -36 6 -8 6 -19 8 -23 4 -5 -4 -4 -1 0 7 6 10 4 13 -7 9
-8 -4 -15 0 -15 7 0 9 6 11 16 6 9 -4 23 -7 31 -6 8 1 23 -6 33 -14 16 -13 19
-13 27 -1 5 8 7 17 4 21 -2 4 4 10 14 13 10 3 19 14 20 23 5 48 11 59 41 76
30 18 31 18 24 0 -3 -10 -3 -15 2 -11 4 4 20 1 36 -8 16 -8 29 -12 29 -9 0 3
10 0 23 -7 12 -7 24 -13 27 -14 3 0 13 -4 23 -9 10 -4 21 -5 24 -1 4 3 -1 6
-11 6 -9 0 -15 4 -11 9 3 5 0 13 -6 17 -8 5 -9 3 -4 -7 6 -11 5 -12 -5 -2 -8
7 -10 16 -6 20 4 5 20 -6 35 -22 24 -28 28 -29 42 -15 7 9 13 14 12 11 -2 -2
3 -11 10 -20 11 -14 10 -15 -7 -1 -18 14 -19 13 -13 -3 4 -11 3 -16 -3 -12 -6
3 -10 0 -11 -7 0 -10 -2 -10 -6 0 -2 6 -12 12 -21 11 -11 0 -13 -2 -4 -6 10
-4 10 -8 0 -21 -7 -10 -8 -13 -3 -9 12 10 34 -31 27 -55 -6 -24 -19 -23 -27 2
-3 11 -13 20 -22 20 -10 0 -13 6 -8 18 5 13 3 14 -6 5 -6 -6 -17 -10 -23 -9
-6 2 -8 1 -3 -1 4 -3 7 -9 7 -14 0 -6 -4 -8 -9 -4 -5 3 -13 0 -17 -6 -4 -7 -3
-9 4 -5 6 3 13 2 17 -4 4 -6 11 -8 16 -4 5 3 6 10 3 16 -4 7 -2 8 5 4 8 -5 7
-16 -6 -39 -10 -18 -22 -35 -26 -38 -9 -6 9 -23 33 -32 12 -4 11 -6 -3 -6 -10
-1 -15 -6 -12 -11 4 -7 13 -7 25 0 16 8 18 7 14 -4 -3 -8 -11 -13 -17 -12 -21
3 -38 17 -32 27 4 5 1 9 -4 9 -6 0 -11 -4 -11 -9 0 -5 -11 -23 -25 -39 -13
-16 -23 -31 -20 -33 2 -2 -7 -24 -21 -49 -13 -25 -33 -64 -44 -87 -20 -40 -37
-50 -73 -44 -5 1 -5 -3 -2 -9 4 -6 13 -9 19 -7 7 3 13 -1 13 -9 0 -18 -12 -18
-31 2 -12 11 -13 20 -6 34 14 27 12 43 -5 36 -8 -3 -15 0 -15 5 0 6 9 9 20 6
13 -3 21 1 26 15 5 17 8 18 28 5 20 -14 24 -13 35 6 11 18 11 20 0 10 -18 -18
-34 -16 -20 1 9 11 9 16 0 22 -7 4 -9 3 -5 -4 3 -6 2 -13 -4 -17 -5 -3 -10 2
-10 12 -1 30 -27 56 -50 50 -12 -3 -23 1 -29 11 -8 14 -10 14 -26 -1 -19 -19
-35 -22 -35 -6 0 5 5 7 10 4 18 -11 10 4 -15 29 -14 14 -25 22 -25 18 0 -4 -5
1 -11 12 -9 15 -13 16 -20 5 -6 -11 -11 -11 -21 -1 -18 18 -34 15 -35 -8 -3
-33 -36 -100 -46 -93 -6 3 -7 1 -3 -6 4 -6 0 -23 -9 -37 -13 -20 -19 -23 -30
-14 -7 6 -16 7 -19 2 -5 -8 61 -38 76 -34 3 1 11 -5 18 -13 6 -7 18 -11 25 -9
21 9 14 -32 -8 -46 -15 -9 -17 -9 -12 0 5 9 1 10 -14 5 -18 -5 -22 -3 -19 11
2 9 -2 19 -9 21 -8 3 -10 -5 -7 -24 3 -20 2 -24 -5 -14 -8 12 -13 12 -36 -3
-15 -10 -25 -14 -21 -8 3 5 -5 13 -19 16 -25 6 -34 29 -16 41 11 6 11 45 0 45
-11 0 -20 -31 -12 -42 4 -7 1 -8 -6 -4 -7 5 -10 15 -7 25 5 12 2 11 -9 -3 -13
-17 -13 -21 3 -32 9 -7 14 -16 9 -20 -4 -4 -7 -2 -7 5 0 7 -3 10 -7 8 -5 -3
-16 6 -25 18 -16 22 -16 25 -2 39 14 14 12 20 -7 18 -3 -1 -6 5 -6 12 0 8 7
12 16 11 9 -2 21 -4 26 -4 7 -1 7 -4 0 -9 -10 -7 -18 -32 -11 -32 16 0 35 14
30 22 -4 7 0 6 12 0 14 -7 24 -7 35 1 17 13 19 17 19 48 0 11 4 18 9 15 5 -4
7 3 4 14 -3 11 -10 17 -16 13 -6 -3 -7 -1 -3 5 4 6 12 9 19 7 7 -2 21 16 33
40 12 25 17 45 12 45 -5 0 -2 7 6 16 9 8 14 20 11 25 -4 5 -2 9 4 9 5 0 22 26
36 58 63 136 78 163 88 159 6 -2 12 -12 13 -22z m560 13 c4 -7 3 -8 -4 -4 -7
4 -12 2 -12 -5 0 -7 -3 -10 -6 -6 -6 5 3 27 11 27 2 0 7 -5 11 -12z m-745 -7
c15 7 17 6 13 -6 -3 -8 -10 -12 -15 -9 -5 3 -9 1 -9 -4 0 -5 -13 -9 -29 -8
-29 1 -33 16 -5 16 9 0 12 5 8 13 -5 9 -4 9 6 0 9 -8 19 -9 31 -2z m813 -22
c-8 -14 -24 -10 -24 6 0 9 6 12 15 9 8 -4 12 -10 9 -15z m-761 -30 c4 -15 2
-17 -13 -9 -25 13 -30 13 -30 -5 0 -8 -6 -15 -12 -16 -10 0 -10 -2 -1 -5 13
-6 -13 -37 -38 -47 -10 -4 -8 -6 4 -6 17 -1 17 -2 0 -33 -21 -38 -32 -48 -53
-47 -11 1 -10 3 3 6 9 2 15 9 11 14 -8 13 24 79 42 86 8 3 14 12 14 20 0 21
43 71 57 66 6 -2 13 -13 16 -24z m40 -5 c6 1 9 1 5 -1 -4 -2 -6 -10 -4 -16 1
-7 1 -9 -1 -4 -3 4 -10 4 -15 1 -6 -4 -8 -2 -4 4 3 6 2 13 -4 17 -5 3 -10 12
-10 18 0 7 5 4 11 -5 5 -9 15 -16 22 -14z m737 12 c0 -8 4 -18 10 -21 6 -4 7
1 4 12 -6 15 -4 15 9 -2 9 -11 22 -38 28 -60 6 -22 16 -43 23 -47 6 -4 11 -11
11 -15 1 -4 15 -36 33 -70 18 -35 30 -63 27 -63 -2 0 7 -16 20 -36 14 -20 22
-40 19 -45 -3 -5 -1 -9 4 -9 5 0 12 -8 15 -17 3 -10 20 -42 37 -72 17 -29 26
-50 18 -46 -7 3 -4 0 6 -9 12 -10 19 -27 18 -47 0 -22 3 -29 13 -25 12 4 43
-49 37 -66 -1 -5 3 -8 10 -8 6 0 8 -3 5 -7 -4 -3 -2 -12 4 -20 16 -19 21 -71
7 -79 -7 -5 -9 -2 -5 8 3 9 0 24 -8 34 -7 10 -10 25 -7 33 4 10 1 12 -8 6 -10
-6 -12 -4 -7 8 4 10 1 17 -6 17 -10 0 -42 60 -47 88 -1 4 -7 14 -14 22 -6 8
-18 27 -25 42 -8 15 -18 25 -24 21 -5 -3 -4 -9 3 -13 15 -9 -25 -25 -52 -21
-10 1 -18 -3 -18 -9 0 -6 5 -8 12 -4 7 4 8 3 4 -4 -4 -7 -24 -12 -44 -12 -30
0 -40 5 -54 29 -14 26 -14 30 -1 35 8 3 12 10 9 15 -7 10 22 37 30 28 10 -9
-7 -28 -18 -21 -7 4 -8 2 -4 -4 4 -6 12 -9 20 -6 7 3 17 -5 22 -17 11 -25 69
-36 59 -11 -2 7 -1 11 4 8 4 -3 16 3 26 14 10 11 13 20 8 20 -11 0 -28 46 -25
66 1 5 -9 10 -23 10 -14 0 -24 -5 -21 -11 4 -12 -42 -14 -61 -2 -17 11 -4 43
23 55 21 10 25 8 38 -16 21 -37 20 -23 -1 24 -9 22 -16 42 -15 47 1 4 -3 7
-10 7 -6 0 -9 3 -5 6 3 3 -4 17 -16 31 -12 13 -23 29 -23 34 -1 5 -2 15 -3 23
0 8 -8 22 -17 30 -8 9 -12 16 -8 16 3 0 0 8 -7 17 -10 11 -10 14 -1 9 7 -4 12
-2 12 5 0 7 -8 9 -22 5 -42 -13 -53 -11 -50 6 2 12 -5 16 -28 14 -37 -3 -38 1
-2 15 30 12 38 11 35 -2 -2 -5 5 -9 15 -9 15 -1 15 -2 -2 -15 -20 -16 -11 -21
12 -7 9 6 7 18 -8 50 -23 47 -24 52 -10 52 6 0 10 -6 10 -14z m-1110 -36 c0
-5 -5 -10 -11 -10 -5 0 -7 5 -4 10 3 6 8 10 11 10 2 0 4 -4 4 -10z m47 -71
c-1 -14 4 -23 15 -24 11 -2 15 2 11 12 -5 12 -7 12 -14 1 -6 -9 -9 -9 -9 -1 0
22 19 24 30 3 7 -12 7 -27 2 -37 -19 -37 -22 -70 -7 -71 8 -1 21 -3 28 -4 8
-1 14 -7 14 -15 0 -8 -4 -10 -12 -3 -7 5 -15 7 -18 3 -4 -3 -13 0 -22 7 -11 9
-15 9 -15 1 0 -7 -5 -9 -12 -5 -7 4 -8 3 -4 -5 9 -14 -2 -53 -13 -46 -5 2 -8
-6 -8 -20 0 -22 12 -32 50 -41 4 -1 10 -3 15 -4 4 -1 12 -1 17 0 6 1 7 -2 3
-6 -4 -4 -4 -12 1 -18 13 -17 1 -86 -15 -86 -7 0 -20 10 -28 22 -14 20 -21 18
-17 -5 1 -5 -4 -5 -11 0 -7 4 -16 8 -20 8 -5 0 -7 5 -5 10 1 6 5 9 10 8 9 -4
9 1 1 21 -3 9 -11 16 -17 16 -6 0 -7 -3 -4 -6 10 -11 -13 -45 -25 -38 -7 5 -8
2 -3 -6 4 -7 9 -33 9 -58 1 -44 2 -45 33 -47 35 -2 51 -11 39 -22 -4 -4 -11
-1 -16 7 -9 13 -10 13 -10 0 0 -9 -3 -11 -8 -5 -10 15 -50 16 -58 3 -5 -7 -2
-8 6 -3 9 5 11 4 6 -4 -11 -17 -15 -126 -6 -141 4 -7 4 -25 0 -40 -5 -18 -4
-32 3 -40 10 -10 7 -10 -10 -1 -13 6 -23 17 -23 24 0 9 -2 9 -8 0 -6 -10 -14
-9 -34 1 -19 10 -29 11 -37 3 -8 -8 -11 -8 -11 1 0 6 -8 9 -17 6 -15 -5 -16
-4 -3 5 14 10 13 12 -9 15 -5 0 -13 5 -18 10 -5 5 -3 6 5 2 9 -6 11 -1 8 18
-3 19 -1 23 10 19 8 -3 14 -2 13 3 -4 21 2 26 16 14 8 -7 12 -16 9 -21 -9 -16
13 -10 38 11 19 14 28 16 36 8 9 -9 10 -6 7 11 -2 14 0 19 7 15 7 -4 8 -2 4 5
-4 6 -12 9 -17 6 -5 -4 -9 0 -9 7 0 10 -3 9 -9 -2 -6 -8 -8 -17 -5 -21 2 -4 1
-10 -4 -13 -13 -8 -13 46 0 62 9 11 9 14 1 9 -15 -9 -8 106 9 136 8 16 7 23
-8 33 -11 7 -25 18 -31 24 -10 8 -13 7 -13 -1 0 -7 -3 -9 -6 -6 -4 4 -1 13 5
21 8 10 9 16 1 21 -6 4 -7 13 -1 23 4 9 7 24 6 33 -2 12 3 15 18 11 20 -5 20
-6 2 -12 -16 -6 -17 -7 -2 -13 9 -3 19 -2 21 2 7 10 57 8 74 -3 8 -5 18 -4 25
3 8 8 8 11 -1 11 -6 0 -9 8 -6 18 4 11 3 13 -3 5 -6 -8 -13 -8 -27 3 -11 8
-14 14 -8 14 7 0 11 3 11 8 -3 19 2 33 11 27 6 -4 7 2 1 16 -9 26 -31 38 -31
18 0 -7 -6 -4 -14 6 -17 23 -10 41 9 25 15 -13 55 -22 53 -12 -3 11 36 92 44
92 4 0 7 -10 5 -21z m224 -28 c-8 -13 -8 -22 -1 -26 6 -4 9 -2 8 3 -2 6 2 11
7 12 6 1 15 6 22 11 7 7 13 6 17 0 4 -5 2 -12 -4 -16 -6 -4 -8 -10 -5 -15 3
-5 0 -12 -6 -16 -6 -3 -15 -1 -19 6 -6 9 -9 9 -15 1 -5 -9 -10 -9 -20 -1 -14
12 -10 35 9 56 16 17 19 9 7 -15z m616 -4 c11 4 14 3 9 -6 -4 -6 -2 -18 4 -26
7 -8 9 -15 6 -15 -4 0 -2 -9 4 -20 17 -32 -2 -23 -37 17 -26 29 -30 39 -21 51
8 8 14 10 16 4 2 -6 10 -8 19 -5z m-693 -83 c-11 -26 -11 -34 0 -43 7 -6 17
-7 21 -3 5 4 4 1 0 -7 -6 -11 -4 -13 11 -7 13 5 16 4 9 -3 -12 -12 -57 -3 -49
10 3 5 0 9 -5 9 -6 0 -11 -5 -11 -11 0 -5 -4 -8 -9 -5 -12 8 -8 -27 4 -36 6
-4 -1 -8 -14 -8 -20 0 -22 3 -16 27 12 51 44 110 58 110 13 0 13 -5 1 -33z
m983 14 c2 -20 -5 -22 -27 -8 -11 7 -11 10 -2 10 7 0 11 4 8 8 -3 5 1 9 7 9 7
0 14 -9 14 -19z m-1787 -12 c0 -8 -6 -17 -12 -19 -9 -4 -8 -6 2 -6 9 -1 16 -9
17 -18 5 -52 9 -71 15 -67 3 2 11 -10 17 -26 10 -29 7 -35 -14 -30 -5 1 -6 -2
-2 -7 5 -4 13 -9 18 -9 5 -1 13 -2 18 -3 19 -2 20 -34 2 -57 -18 -23 -21 -61
-6 -97 4 -10 2 -24 -6 -34 -8 -10 -9 -14 -2 -10 7 4 18 -5 27 -24 16 -31 13
-55 -5 -44 -5 4 -9 1 -9 -6 0 -7 -11 -10 -29 -7 -17 2 -28 1 -26 -2 7 -12
-179 -5 -201 8 -12 6 -24 18 -28 27 -7 18 2 45 16 45 5 0 6 -6 2 -12 -4 -7 1
-5 12 4 24 21 124 32 124 15 0 -25 -16 -34 -56 -33 -37 1 -41 -1 -39 -23 1
-31 16 -36 53 -17 16 8 33 12 37 8 5 -4 5 -1 1 6 -6 10 4 16 25 14 4 -1 14 7
23 17 13 15 14 18 1 18 -8 0 -12 -4 -9 -8 2 -4 -1 -11 -7 -15 -9 -5 -10 0 -6
17 4 13 7 33 7 44 0 17 2 17 10 5 7 -11 10 -11 10 -2 0 7 5 10 10 7 6 -4 8
-11 5 -16 -3 -5 2 -6 11 -2 11 4 15 3 10 -5 -3 -6 -3 -13 2 -16 4 -2 8 4 9 15
1 10 -12 32 -29 49 -22 22 -29 37 -26 55 3 13 1 22 -4 19 -8 -5 -5 90 5 133 3
13 2 25 -3 28 -12 7 -9 67 4 82 15 17 26 16 26 -1z m1460 -18 c0 -11 8 -27 18
-35 10 -9 5 -8 -12 2 -16 9 -25 12 -21 6 3 -7 -3 -30 -14 -52 -22 -42 -20 -64
6 -55 8 3 11 1 8 -4 -3 -6 -1 -10 6 -10 7 0 9 -3 6 -7 -8 -8 11 -33 25 -33 6
0 5 7 -2 15 -7 9 -10 18 -6 22 3 3 6 1 6 -6 0 -7 5 -9 12 -5 7 4 8 3 4 -4 -4
-7 -3 -12 3 -12 5 0 13 9 16 20 4 11 11 17 17 14 5 -4 6 -9 2 -13 -5 -3 -13
-14 -19 -24 -5 -10 -14 -18 -19 -17 -5 1 -13 -4 -17 -12 -7 -10 -14 -7 -30 12
-15 17 -19 20 -15 7 4 -11 2 -16 -5 -12 -6 4 -8 13 -5 21 3 8 -1 14 -10 14 -8
0 -12 5 -9 10 5 8 11 7 21 -1 8 -7 14 -7 14 -1 0 16 -33 24 -41 10 -4 -7 -3
-18 3 -25 6 -8 8 -16 4 -20 -3 -3 -6 -2 -6 3 0 5 -8 10 -17 11 -14 1 -18 -7
-20 -34 -2 -41 -25 -80 -47 -80 -11 0 -13 5 -5 18 5 10 9 22 9 28 0 10 -38 27
-52 23 -5 -1 -8 3 -8 8 0 13 6 13 40 -5 25 -13 30 -13 30 -1 0 7 6 16 14 19 7
3 12 18 11 34 -1 15 5 33 13 39 12 9 13 13 2 19 -9 6 -11 4 -5 -6 8 -12 6 -12
-9 0 -15 13 -17 12 -12 -12 2 -15 0 -30 -6 -33 -7 -5 -8 -2 -3 6 6 10 4 12 -8
7 -28 -11 -39 25 -16 53 12 15 17 18 13 8 -3 -10 -1 -18 5 -18 6 0 11 6 11 13
0 8 3 8 8 2 10 -15 48 -13 45 2 -2 7 4 10 12 7 8 -4 15 -1 15 5 0 6 -4 11 -10
11 -5 0 -7 7 -4 15 4 8 11 12 17 8 6 -4 7 -1 3 6 -10 15 13 73 25 65 5 -3 9
-15 9 -26z m300 3 c0 -4 -3 -11 -7 -14 -8 -9 -34 13 -28 24 6 9 35 1 35 -10z
m-210 -30 c6 -16 18 -32 26 -35 8 -3 14 -11 12 -18 -1 -7 6 -28 15 -46 13 -23
14 -31 5 -30 -18 4 -50 57 -42 70 4 6 3 8 -3 5 -10 -6 -37 43 -33 59 1 4 -4
11 -12 15 -10 7 -9 9 3 9 9 0 22 -13 29 -29z m-959 -38 c13 -17 13 -17 -6 -3
-11 8 -22 16 -24 17 -2 2 0 3 6 3 6 0 17 -8 24 -17z m389 -35 c0 -4 3 -7 8 -7
20 3 32 -2 26 -12 -4 -8 -9 -7 -15 2 -7 11 -9 11 -9 -1 0 -10 -3 -11 -8 -4 -4
6 -16 16 -27 22 -19 11 -19 11 3 9 12 -1 22 -5 22 -9z m105 -18 c-3 -5 -2 -10
3 -10 12 0 10 -43 -3 -52 -6 -5 -5 -8 3 -8 8 0 13 -9 11 -22 -3 -36 16 -72 83
-157 25 -32 26 -36 13 -67 -7 -18 -12 -34 -10 -36 1 -2 5 -27 8 -56 5 -45 3
-54 -15 -63 -11 -6 -22 -8 -25 -5 -4 3 -12 1 -20 -5 -7 -6 -13 -8 -13 -5 0 4
-8 2 -18 -3 -13 -7 -23 -6 -32 2 -10 9 -11 9 -5 -2 7 -11 1 -13 -29 -8 -20 3
-34 2 -31 -3 9 -15 -40 2 -52 18 -7 9 -13 12 -13 8 0 -5 -7 -3 -15 4 -13 10
-13 15 -3 21 9 6 5 14 -15 33 -32 30 -37 52 -8 36 27 -14 30 -13 28 9 0 11 -5
17 -9 15 -13 -8 -57 30 -58 49 0 9 5 17 11 17 5 0 8 -4 5 -9 -4 -5 2 -7 13 -4
15 4 18 0 16 -21 -2 -14 1 -24 6 -20 5 3 7 10 3 15 -8 14 26 50 40 42 6 -3 7
-2 3 3 -5 5 -17 10 -28 10 -45 3 -50 4 -45 12 3 5 -5 8 -17 8 -17 -1 -23 6
-25 26 -4 36 20 48 94 46 38 0 52 -3 39 -8 -11 -4 -37 -5 -57 -2 -25 3 -38 1
-38 -7 0 -6 5 -11 11 -11 5 0 7 -6 3 -12 -5 -10 -4 -10 6 -1 11 10 16 9 27 -5
8 -9 12 -12 9 -5 -4 7 4 12 21 13 62 3 81 5 77 11 -2 4 3 22 11 41 10 26 11
38 3 46 -9 9 -9 12 0 12 7 0 12 5 12 11 0 5 -4 8 -9 4 -5 -3 -9 9 -9 27 0 35
22 78 39 78 6 0 7 -4 4 -10z m-1186 -24 c6 -4 9 -11 7 -15 -3 -4 0 -13 6 -21
8 -12 9 -11 4 3 -4 12 -2 17 6 15 6 -2 12 -12 14 -21 3 -22 -29 -23 -50 -1 -9
8 -16 11 -16 5 0 -6 -5 -11 -11 -11 -5 0 -8 4 -4 9 3 6 -4 8 -15 6 -11 -2 -20
1 -20 6 0 6 -6 7 -12 2 -7 -4 -23 -9 -35 -11 -17 -2 -21 1 -17 12 7 18 39 30
54 21 5 -3 10 -1 10 5 0 12 58 9 79 -4z m505 2 c-16 -7 -21 -18 -20 -46 1 -21
4 -41 7 -47 12 -19 -3 -75 -23 -86 -11 -6 -22 -8 -25 -5 -3 3 -14 1 -24 -4
-12 -7 -20 -7 -24 0 -4 6 -3 10 2 9 20 -4 24 2 12 18 -12 15 -12 16 2 11 13
-5 16 -2 12 13 -4 13 0 19 11 20 45 4 50 9 34 43 -10 23 -9 29 3 37 11 7 11 9
-3 9 -10 0 -18 5 -18 11 0 8 -4 8 -12 1 -15 -11 -82 -22 -71 -11 10 10 111 38
138 38 19 0 19 -1 -1 -11z m1311 -28 c3 -5 2 -10 -3 -10 -5 0 -9 -7 -9 -15 0
-18 13 -20 20 -2 3 6 4 2 4 -10 -1 -12 -5 -19 -9 -17 -4 3 -19 -3 -33 -12 -23
-15 -24 -18 -10 -37 18 -25 19 -37 4 -37 -5 0 -8 4 -5 8 3 5 -10 30 -29 57
-19 26 -32 52 -29 56 3 5 0 9 -7 9 -7 0 -9 3 -6 6 4 4 12 3 19 -3 15 -11 58
-15 57 -5 -4 23 24 32 36 12z m-1459 -22 c4 -7 3 -8 -4 -4 -7 4 -12 2 -12 -3
0 -6 4 -11 8 -11 4 0 8 -9 9 -20 1 -11 -3 -20 -8 -20 -6 0 -8 -4 -4 -10 3 -5
-7 -3 -22 5 -14 8 -28 21 -29 30 -1 8 2 13 7 9 5 -3 7 -10 4 -15 -4 -5 1 -9
10 -9 9 0 13 4 10 10 -5 9 11 50 20 50 2 0 7 -5 11 -12z m1371 -115 c-2 -1
-34 -7 -72 -13 -39 -6 -81 -14 -94 -17 -20 -5 -13 7 40 70 l63 77 33 -57 c17
-32 31 -58 30 -60z m-1764 98 c10 0 16 -5 13 -10 -4 -5 4 -7 16 -3 16 4 19 2
13 -9 -7 -11 -6 -12 7 -2 16 13 28 8 28 -12 0 -15 -31 -16 -49 -1 -11 8 -13 8
-8 0 5 -8 -4 -12 -27 -12 -19 0 -39 -3 -44 -6 -6 -3 -13 0 -16 6 -5 10 -7 10
-12 1 -7 -16 -34 -17 -34 -3 0 6 7 22 16 35 13 19 23 24 48 21 17 -2 39 -4 49
-5z m1157 -53 c0 -11 -6 -15 -19 -11 -15 4 -17 8 -7 28 11 25 26 16 26 -17z
m-319 0 c0 -13 2 -32 3 -44 2 -16 -2 -20 -15 -17 -13 4 -16 12 -12 31 3 15 6
33 6 40 1 22 17 13 18 -10z m533 -32 c11 -1 28 -6 36 -11 8 -5 31 -9 52 -9 20
0 35 -2 33 -5 -3 -2 1 -11 8 -20 11 -14 10 -15 -7 -1 -16 12 -20 12 -30 0 -18
-24 -39 -24 -33 0 4 17 3 19 -8 10 -8 -7 -19 -9 -25 -5 -9 5 -28 11 -67 19
-16 3 -42 37 -43 54 0 9 10 6 31 -9 18 -12 41 -23 53 -23z m-958 22 c5 -7 2
-8 -7 -3 -12 7 -12 6 0 -6 10 -11 15 -11 18 -1 3 6 10 12 16 12 8 0 8 -3 -1
-12 -9 -9 -9 -15 0 -25 9 -11 8 -13 -3 -11 -8 2 -13 -3 -11 -12 11 -44 10 -49
-4 -43 -10 4 -13 0 -8 -13 4 -14 3 -16 -4 -5 -8 11 -11 10 -19 -4 -9 -16 -11
-16 -16 -1 -4 10 -3 14 2 11 5 -3 12 -1 16 5 3 5 1 10 -5 10 -6 0 -8 5 -4 13
6 9 5 9 -8 0 -8 -7 -18 -10 -21 -6 -4 3 1 11 9 18 14 10 7 12 -34 12 -28 0
-49 -3 -47 -7 3 -4 16 -6 30 -5 17 2 25 -2 25 -13 0 -8 -3 -13 -6 -9 -4 3 -19
0 -35 -8 -29 -15 -58 -20 -46 -8 4 3 0 17 -8 30 -15 22 -14 24 10 33 41 16
105 21 105 9 0 -5 -4 -7 -10 -4 -5 3 -10 1 -10 -5 0 -21 25 -4 26 18 1 12 -2
19 -7 17 -4 -3 -10 -1 -14 4 -3 6 5 8 19 5 14 -2 28 0 31 6 8 13 12 13 21 -2z
m546 -21 c-14 -17 -22 -87 -10 -87 6 0 7 -7 4 -16 -4 -10 -2 -13 6 -8 7 5 9
-1 4 -19 -3 -15 -1 -29 5 -32 6 -4 8 -14 5 -22 -3 -8 -1 -11 4 -8 6 3 10 -3
10 -14 0 -10 3 -27 7 -37 5 -14 3 -16 -12 -10 -11 4 -26 0 -39 -11 -12 -10
-18 -14 -13 -9 4 5 0 18 -10 28 -14 16 -15 20 -1 36 9 9 13 23 11 30 -3 7 3
23 13 34 19 21 19 21 -1 14 -11 -4 -16 -4 -13 -1 4 4 3 17 -2 30 -5 14 -5 26
3 34 8 8 8 11 -2 11 -7 0 -9 5 -6 10 3 6 -1 10 -9 10 -9 0 -16 -6 -17 -12 0
-10 -2 -10 -6 0 -2 6 -10 9 -15 6 -6 -4 -8 -2 -5 3 4 6 21 10 38 9 26 -2 30 1
25 18 -6 25 13 51 27 37 7 -7 6 -15 -1 -24z m601 20 c4 3 7 1 7 -5 0 -17 -16
-15 -31 6 -12 15 -12 16 2 5 9 -7 19 -10 22 -6z m-929 -10 c4 4 4 -1 0 -12 -4
-10 -9 -14 -11 -8 -2 6 -12 10 -21 8 -9 -1 -11 0 -4 2 7 3 9 10 5 16 -5 8 -2
8 9 0 8 -7 18 -10 22 -6z m-669 -7 c-3 -5 -1 -10 4 -10 6 0 11 5 11 10 0 6 5
10 11 10 5 0 7 -6 3 -12 -6 -10 -4 -10 7 -2 8 5 28 10 44 9 23 0 31 -6 33 -23
4 -23 -12 -30 -24 -11 -4 7 -9 7 -13 2 -9 -15 -114 -33 -125 -22 -6 5 -15 9
-20 9 -6 0 -4 -5 4 -10 11 -7 12 -12 4 -20 -8 -8 -13 -6 -17 10 -3 14 1 28 14
41 21 21 43 26 34 7 -3 -7 0 -5 7 5 13 18 34 24 23 7z m1911 -62 c4 -7 3 -8
-4 -4 -7 4 -12 2 -12 -4 0 -6 -13 -8 -32 -5 -22 3 -28 2 -19 -4 11 -7 11 -9 0
-14 -8 -3 -4 -4 8 -4 12 1 19 5 16 11 -3 5 -1 6 6 2 6 -4 9 -12 5 -17 -3 -5
-9 -7 -14 -4 -5 3 -12 0 -16 -6 -5 -8 1 -10 20 -7 15 3 24 3 21 0 -2 -3 -1
-10 4 -16 6 -7 1 -12 -16 -13 -20 -1 -23 1 -12 9 12 8 12 9 0 6 -8 -3 -17 -10
-19 -18 -3 -9 2 -11 15 -8 25 7 56 -9 47 -24 -4 -6 -7 -20 -8 -32 -1 -22 -8
-23 -108 -13 -21 2 -38 0 -38 -3 0 -4 -11 -6 -25 -5 -14 2 -23 -1 -20 -5 3 -5
1 -12 -5 -15 -6 -4 -10 -3 -9 2 4 21 -2 34 -12 28 -16 -10 -69 -12 -63 -3 3 4
-2 8 -10 8 -9 0 -16 -4 -16 -10 0 -5 -13 -10 -30 -10 -16 0 -29 3 -29 8 3 20
-2 32 -16 32 -8 0 -15 6 -16 13 0 8 -2 8 -6 -2 -5 -11 -7 -11 -15 0 -7 11 -8
9 -4 -5 5 -14 2 -17 -11 -12 -17 6 -17 5 0 -8 26 -20 21 -26 -22 -26 -37 0
-38 1 -37 33 2 32 2 32 52 33 28 1 56 4 62 7 14 10 62 4 62 -6 0 -5 6 -5 13 1
8 7 16 5 27 -6 13 -14 12 -15 -3 -9 -16 6 -34 -9 -24 -19 11 -11 46 17 41 31
-7 18 -4 18 31 5 17 -7 24 -7 20 0 -3 6 -2 10 3 10 6 0 8 16 6 35 -3 37 1 41
26 25 12 -8 12 -10 1 -10 -11 0 -11 -3 -1 -15 12 -14 7 -20 -15 -15 -5 1 -5
-4 2 -11 6 -6 32 -12 57 -12 25 0 46 -4 46 -8 0 -5 -6 -8 -12 -6 -7 1 -12 -4
-10 -10 1 -7 -3 -13 -10 -13 -20 0 -1 -11 28 -16 16 -2 25 -1 19 3 -13 11 -17
33 -6 33 5 0 8 11 7 25 -2 15 1 22 7 18 7 -4 8 1 3 13 -21 53 -18 63 21 67 21
2 39 4 40 5 1 1 5 -3 9 -10z m132 2 c13 -8 7 -10 -25 -6 -30 4 -43 2 -43 -7 0
-8 -2 -9 -8 -1 -4 6 -15 10 -25 8 -9 -1 -15 1 -13 4 7 12 96 13 114 2z m-1162
-30 c-1 -16 -6 -30 -12 -30 -19 0 -24 28 -8 45 21 20 21 20 20 -15z m1148 -12
c-5 -16 -3 -19 7 -12 11 6 12 5 2 -7 -16 -20 -4 -34 28 -35 24 -1 26 2 22 30
-4 28 -1 32 20 32 17 0 23 -4 20 -13 -3 -8 -2 -13 3 -12 20 3 34 -2 34 -12 0
-5 -4 -8 -9 -5 -4 3 -17 -4 -27 -15 -16 -17 -16 -22 -4 -30 11 -7 7 -8 -12 -3
-17 4 -28 2 -28 -5 0 -6 8 -8 18 -4 14 6 15 4 5 -9 -7 -8 -30 -16 -50 -17
-126 -6 -140 -6 -136 6 3 7 10 10 16 6 6 -3 7 -1 3 6 -6 9 -11 9 -22 0 -12
-10 -13 -9 -8 5 4 11 14 16 25 13 11 -3 17 -1 13 4 -3 5 -13 10 -22 10 -9 1
-1 5 18 8 19 4 40 3 47 -2 9 -6 11 -3 8 12 -2 12 1 20 8 18 7 -1 10 5 9 13
-11 45 -10 49 4 43 9 -3 12 -12 8 -25z m-449 -36 c-2 -9 -4 -19 -4 -21 -1 -2
-8 2 -16 9 -8 6 -18 9 -23 6 -5 -3 -9 1 -9 8 0 8 6 12 13 9 6 -2 15 1 19 6 9
16 24 4 20 -17z m-711 -7 c-4 -8 -2 -15 4 -15 11 0 10 -50 -2 -69 -7 -10 -6
-12 4 -6 9 5 11 4 6 -3 -10 -17 -41 -15 -56 3 -7 8 -17 15 -22 15 -6 0 -5 -7
2 -15 7 -9 8 -15 2 -15 -5 0 -13 8 -16 17 -6 14 -9 15 -15 4 -6 -10 -10 -9
-15 4 -3 9 -3 21 0 26 3 6 1 16 -6 24 -7 8 -7 15 -1 19 5 4 12 2 15 -2 3 -5
21 -8 41 -7 19 2 32 -1 30 -6 -3 -4 -13 -6 -23 -3 -14 5 -14 3 2 -10 11 -9 14
-16 8 -16 -7 0 -12 -4 -12 -10 0 -5 6 -9 13 -7 6 1 11 -4 9 -11 -1 -8 2 -11 7
-7 7 3 7 15 1 30 -6 15 -6 27 0 30 6 4 10 15 10 26 0 10 4 19 10 19 5 0 7 -7
4 -15z m55 -42 c-8 -9 -8 -13 -1 -13 6 0 16 8 21 18 9 15 11 12 11 -13 0 -3
-3 -4 -6 -2 -9 4 -26 -32 -19 -43 3 -6 0 -10 -7 -10 -8 0 -13 14 -13 38 -1 25
4 39 12 39 9 0 10 -4 2 -14z m886 -2 c3 -5 2 -12 -3 -15 -5 -3 -9 1 -9 9 0 17
3 19 12 6z m-280 -39 c-10 -10 -29 -9 -37 2 -12 17 2 26 23 15 12 -6 18 -14
14 -17z m608 19 c3 9 10 1 17 -18 13 -35 24 -37 54 -11 11 10 22 15 25 12 3
-4 0 -9 -6 -11 -7 -3 -13 -9 -13 -14 0 -6 5 -7 12 -3 7 4 8 3 4 -4 -4 -6 -14
-8 -23 -5 -10 4 -14 2 -10 -4 5 -7 -1 -10 -15 -7 -13 2 -17 2 -10 -2 6 -3 9
-11 6 -16 -4 -7 -2 -8 4 -4 7 4 12 1 12 -8 0 -18 -36 -40 -55 -33 -17 7 -45
64 -45 92 0 27 21 50 31 34 4 -8 8 -7 12 2z m-97 -59 c2 -50 4 -53 22 -48 9 3
24 1 32 -5 12 -9 12 -10 -4 -5 -16 5 -17 4 -6 -8 10 -14 2 -15 -67 -10 -43 3
-104 4 -135 4 -56 -1 -58 0 -49 22 4 13 6 29 4 36 -3 7 1 11 7 10 7 -2 15 3
17 10 3 8 -1 10 -14 5 -10 -3 -15 -3 -12 1 4 4 15 8 26 10 17 4 20 0 17 -26
-4 -27 -2 -29 13 -17 9 8 14 9 10 2 -4 -6 -4 -13 0 -16 5 -2 2 -2 -4 -1 -7 2
-13 -1 -13 -6 0 -11 14 -13 75 -10 58 2 75 9 68 26 -5 13 -7 13 -14 2 -6 -9
-9 -9 -9 -1 0 6 5 15 10 18 6 3 10 11 10 16 0 6 -4 7 -10 4 -5 -3 -10 -2 -10
4 0 10 22 21 30 14 2 -2 5 -16 6 -31z m-316 3 c-10 -12 -10 -15 1 -16 12 0 12
-1 0 -6 -11 -5 -11 -7 0 -15 10 -7 9 -8 -6 -3 -16 5 -18 4 -7 -6 6 -7 28 -12
47 -11 19 2 35 -2 35 -7 0 -5 -8 -10 -17 -10 -10 1 -47 1 -83 0 -101 0 -103 0
-96 6 4 4 28 7 54 8 40 0 47 4 47 20 1 21 26 67 34 60 2 -3 -2 -11 -9 -20z
m-994 -10 c9 -12 10 -22 4 -30 -5 -7 -7 -15 -3 -19 4 -4 8 -19 9 -34 2 -47 4
-51 19 -46 8 4 12 11 8 18 -3 6 3 3 14 -6 23 -21 40 -24 24 -5 -8 10 -7 14 4
14 8 0 12 -4 9 -9 -8 -12 6 -10 20 5 6 6 11 27 10 45 0 17 5 40 12 50 10 14
12 -2 12 -95 -1 -104 -8 -133 -21 -83 -3 13 -1 18 6 13 9 -5 9 -3 1 8 -6 8
-10 22 -9 31 2 13 -1 15 -18 9 -12 -5 -39 -7 -59 -6 l-38 3 -1 -42 c-1 -22 0
-45 1 -51 1 -5 2 -20 2 -32 0 -12 6 -24 13 -26 6 -3 12 1 12 9 0 7 -4 11 -9 8
-4 -3 -5 2 -1 11 4 13 8 14 14 4 4 -7 5 -17 3 -21 -3 -4 2 -8 10 -8 17 0 17
20 1 32 -6 5 -3 8 6 8 9 0 19 -7 23 -15 3 -8 11 -15 17 -15 8 0 7 6 -2 18 -12
15 -12 16 2 4 9 -7 24 -10 33 -6 15 6 22 -6 16 -31 -1 -5 -2 -20 -2 -32 0 -13
-4 -23 -9 -23 -5 0 -9 -4 -9 -10 0 -5 3 -9 8 -7 4 1 8 -3 10 -8 1 -6 -4 -10
-10 -10 -9 0 -13 17 -14 50 0 50 -12 60 -39 34 -7 -7 -4 -8 8 -4 9 4 17 3 17
-3 0 -11 -25 -10 -36 1 -12 11 -26 8 -18 -4 4 -8 1 -8 -14 0 -17 9 -23 8 -30
-6 -5 -10 -8 -29 -6 -43 2 -14 1 -20 -3 -15 -5 6 -15 11 -23 13 -8 2 -17 8
-18 13 -2 5 -9 6 -15 2 -7 -3 -8 -2 -4 2 12 14 38 15 30 2 -4 -7 1 -6 10 2 9
7 17 19 17 25 0 7 -3 7 -8 1 -11 -16 -62 -12 -75 5 -16 21 -41 25 -34 6 4 -10
1 -13 -8 -9 -8 3 -13 9 -10 13 3 4 -2 13 -10 20 -23 19 -18 27 20 27 25 0 34
-4 31 -13 -3 -8 -1 -16 4 -19 9 -5 14 9 8 18 -2 2 4 12 12 22 16 20 14 82 -3
104 -9 12 -9 13 0 7 9 -5 11 -2 7 8 -3 9 -1 16 4 16 6 0 9 12 6 26 -3 15 -1
23 5 20 5 -4 13 -2 16 4 4 6 3 10 -2 9 -20 -3 -37 2 -28 9 6 4 10 13 11 20 1
6 2 19 3 27 2 20 40 14 57 -10z m861 10 c4 -4 2 -5 -4 -1 -7 4 -13 2 -13 -3 0
-6 5 -11 12 -11 6 0 3 -7 -8 -15 -16 -13 -16 -14 -1 -9 9 3 17 2 17 -4 0 -8
-19 -9 -52 -3 -4 0 -12 11 -18 24 -10 20 -10 20 3 5 19 -24 32 -23 34 2 1 13
-2 18 -9 14 -6 -4 -8 -3 -5 4 8 12 32 10 44 -3z m-569 -7 c19 -19 15 -66 -7
-78 -25 -13 -54 -13 -46 0 3 6 1 10 -6 10 -8 0 -8 4 1 15 7 8 10 15 6 15 -4 0
1 11 10 25 18 28 25 30 42 13z m-451 -83 c-2 -32 1 -45 11 -45 7 0 11 4 7 9
-3 6 6 8 21 5 18 -3 23 -1 18 7 -5 8 -3 9 6 4 10 -6 9 -11 -4 -21 -13 -9 -14
-13 -4 -17 9 -4 9 -6 1 -6 -6 -1 -15 3 -18 9 -4 6 -13 5 -25 -2 -14 -9 -17
-19 -13 -40 3 -16 1 -28 -5 -28 -6 0 -9 29 -7 73 3 89 4 97 10 97 2 0 3 -20 2
-45z m765 -5 c2 -12 5 -20 8 -19 3 1 15 -3 28 -10 17 -9 22 -9 22 1 0 9 3 9
10 -2 7 -11 10 -11 10 -2 0 7 5 10 11 7 6 -5 4 -12 -8 -20 -11 -9 -22 -10 -27
-4 -14 13 -28 11 -20 -3 6 -10 4 -10 -7 0 -21 20 -25 15 -27 -40 -1 -58 11
-81 39 -73 12 4 19 1 19 -6 0 -10 3 -10 12 -1 7 7 17 12 23 12 5 0 3 -5 -5
-10 -11 -7 -11 -10 -2 -10 7 0 10 -4 7 -10 -3 -5 -2 -10 4 -10 6 0 9 14 7 30
-3 25 -1 28 10 19 8 -6 14 -8 14 -3 0 4 5 3 11 -3 6 -6 17 -9 24 -6 8 2 16 -5
20 -18 6 -17 9 -19 16 -8 5 8 9 10 9 4 0 -23 -21 -39 -55 -42 -28 -2 -42 3
-61 23 -23 22 -25 22 -19 4 3 -11 3 -20 -2 -21 -4 -1 -20 -2 -35 -3 -15 -2
-34 -8 -42 -15 -10 -8 -16 -9 -21 -1 -3 6 -11 8 -16 5 -5 -3 -19 3 -31 14 -27
26 -46 28 -27 4 13 -16 12 -17 -3 -4 -10 7 -15 17 -12 22 3 5 -2 6 -10 3 -21
-8 -20 10 1 27 11 10 14 10 9 2 -4 -7 -4 -13 1 -14 4 0 19 -2 33 -5 l25 -4
-25 16 c-22 14 -23 15 -3 11 25 -5 31 16 23 74 -4 31 -8 36 -30 34 -29 -3 -67
19 -51 30 6 3 11 0 11 -7 0 -10 2 -10 9 1 6 9 11 10 15 2 4 -6 12 -11 17 -11
6 0 7 5 3 12 -4 7 -3 8 5 4 6 -4 8 -12 5 -18 -4 -7 -2 -8 4 -4 7 4 12 19 12
33 0 18 4 24 15 20 8 -4 17 -2 20 3 10 17 23 11 27 -10z m-301 -37 c1 -21 1
-41 1 -44 -8 -55 -8 -79 -2 -79 5 0 7 -17 5 -37 -2 -36 -4 -38 -36 -36 -19 1
-29 -1 -24 -5 6 -4 12 -16 13 -27 5 -27 12 -33 12 -9 0 16 2 17 11 4 9 -13 10
-12 5 3 -3 9 -2 17 3 17 10 0 21 -47 13 -55 -3 -3 -18 -5 -33 -5 -18 0 -28 6
-32 20 -3 11 -1 20 5 20 6 0 4 10 -4 23 -9 12 -25 22 -36 22 -11 0 -24 4 -29
9 -5 5 -3 6 5 2 17 -10 15 10 -4 28 -16 17 -15 17 31 20 11 1 30 7 43 14 17
10 22 10 22 1 0 -18 10 -5 14 18 3 13 -2 19 -14 19 -10 0 -16 -6 -13 -13 3 -7
0 -13 -6 -13 -12 0 -12 1 -15 46 -1 17 -7 39 -14 47 -11 13 -10 17 7 27 12 6
21 7 21 3 0 -4 5 -2 12 5 23 23 38 13 39 -25z m145 10 c-3 -4 -1 -12 5 -20 7
-8 7 -13 2 -13 -6 0 -9 -10 -9 -22 1 -13 -1 -31 -6 -40 -5 -11 -3 -22 7 -32
16 -16 20 -31 7 -22 -11 7 -8 -31 3 -41 4 -5 4 -1 0 7 -8 13 -7 13 8 1 9 -7
17 -16 17 -19 0 -3 -3 -3 -6 1 -3 3 -16 2 -29 -3 -14 -5 -26 -5 -34 3 -8 8
-11 7 -11 -3 -1 -9 -7 -4 -15 10 -8 14 -14 21 -15 16 0 -5 -7 -3 -15 4 -9 8
-15 9 -15 2 0 -6 5 -14 10 -17 6 -3 10 -12 10 -18 0 -8 -3 -8 -8 -2 -4 6 -14
10 -22 10 -8 0 -15 10 -16 22 -1 16 3 20 15 15 14 -5 14 -3 2 11 -9 11 -10 17
-2 17 6 0 11 -5 11 -11 0 -6 5 -7 13 -2 13 8 18 10 42 12 9 0 15 8 13 19 -2
11 3 16 12 14 13 -2 13 -1 0 10 -10 8 -15 29 -14 58 1 62 1 62 25 50 11 -7 18
-14 15 -17z m294 7 c0 -11 5 -20 11 -20 5 0 7 5 3 12 -4 6 -3 8 4 4 5 -3 12
-3 15 1 2 5 2 2 1 -4 -2 -7 5 -17 14 -23 14 -8 12 -9 -9 -6 -30 5 -57 -8 -40
-18 6 -4 7 -15 2 -29 -5 -12 -10 -26 -11 -32 -1 -5 -3 -11 -5 -13 -5 -5 -15
51 -12 73 1 11 -3 19 -10 18 -7 -2 -6 7 4 27 17 34 33 39 33 10z m-530 -35 c0
0 -8 -1 -18 -1 -10 0 -19 8 -19 17 -2 16 0 17 18 1 10 -9 19 -17 19 -17z m182
17 c19 -19 0 -27 -21 -8 -11 10 -22 13 -25 8 -3 -6 0 -13 6 -16 7 -2 2 -4 -11
-2 -13 2 -25 9 -27 18 -2 18 59 19 78 0z m48 -234 c0 -23 -4 -29 -17 -26 -11
2 -17 12 -16 26 1 29 1 29 18 29 10 0 15 -10 15 -29z m130 28 c0 -2 -8 -10
-17 -17 -16 -13 -17 -12 -4 4 13 16 21 21 21 13z"/>
<path d="M2766 3282 c-3 -5 1 -9 9 -9 8 0 12 4 9 9 -3 4 -7 8 -9 8 -2 0 -6 -4
-9 -8z"/>
<path d="M2830 3256 c7 -7 13 -7 20 0 6 6 3 10 -10 10 -13 0 -16 -4 -10 -10z"/>
<path d="M2769 3243 c-13 -16 -12 -17 4 -4 9 7 17 15 17 17 0 8 -8 3 -21 -13z"/>
<path d="M2645 3239 c-3 -4 2 -6 10 -5 21 3 28 13 10 13 -9 0 -18 -4 -20 -8z"/>
<path d="M2730 3241 c0 -6 4 -12 8 -15 5 -3 9 1 9 9 0 8 -4 15 -9 15 -4 0 -8
-4 -8 -9z"/>
<path d="M2794 3238 c-4 -7 -4 -10 1 -6 4 4 15 2 24 -5 14 -11 14 -10 2 6 -16
20 -18 21 -27 5z"/>
<path d="M1906 3222 c-3 -5 1 -9 9 -9 8 0 12 4 9 9 -3 4 -7 8 -9 8 -2 0 -6 -4
-9 -8z"/>
<path d="M1940 3225 c0 -2 6 -8 13 -14 10 -8 14 -7 14 2 0 8 -6 14 -14 14 -7
0 -13 -1 -13 -2z"/>
<path d="M2900 3226 c0 -2 8 -10 18 -17 15 -13 16 -12 3 4 -13 16 -21 21 -21
13z"/>
<path d="M1850 3216 c0 -2 8 -10 18 -17 15 -13 16 -12 3 4 -13 16 -21 21 -21
13z"/>
<path d="M2090 3216 c0 -2 8 -10 18 -17 15 -13 16 -12 3 4 -13 16 -21 21 -21
13z"/>
<path d="M2654 3209 c-3 -6 -2 -15 3 -20 5 -5 9 -1 9 11 0 23 -2 24 -12 9z"/>
<path d="M2694 3200 c0 -13 4 -16 10 -10 7 7 7 13 0 20 -6 6 -10 3 -10 -10z"/>
<path d="M1826 3202 c-3 -5 1 -9 9 -9 8 0 12 4 9 9 -3 4 -7 8 -9 8 -2 0 -6 -4
-9 -8z"/>
<path d="M1956 3181 c-3 -4 4 -17 17 -27 22 -19 22 -19 4 2 -9 11 -14 24 -10
27 3 4 4 7 0 7 -3 0 -8 -4 -11 -9z"/>
<path d="M1990 3178 c0 -4 4 -8 9 -8 6 0 12 4 15 8 3 5 -1 9 -9 9 -8 0 -15 -4
-15 -9z"/>
<path d="M2395 3180 c-3 -5 -1 -10 4 -10 6 0 11 5 11 10 0 6 -2 10 -4 10 -3 0
-8 -4 -11 -10z"/>
<path d="M2915 3181 c-3 -5 -2 -12 3 -15 5 -3 9 1 9 9 0 17 -3 19 -12 6z"/>
<path d="M2976 3182 c-2 -4 4 -8 14 -8 10 0 16 4 14 8 -3 4 -9 8 -14 8 -5 0
-11 -4 -14 -8z"/>
<path d="M1839 3178 c-5 -18 -6 -38 -1 -34 7 8 12 36 6 36 -2 0 -4 -1 -5 -2z"/>
<path d="M2169 3163 c-13 -16 -12 -17 4 -4 16 13 21 21 13 21 -2 0 -10 -8 -17
-17z"/>
<path d="M2631 3164 c0 -11 3 -14 6 -6 3 7 2 16 -1 19 -3 4 -6 -2 -5 -13z"/>
<path d="M1795 3150 c10 -11 20 -20 23 -20 3 0 -3 9 -13 20 -10 11 -20 20 -23
20 -3 0 3 -9 13 -20z"/>
<path d="M1899 3153 c-13 -16 -12 -17 4 -4 9 7 17 15 17 17 0 8 -8 3 -21 -13z"/>
<path d="M2040 3165 c0 -2 6 -8 13 -14 10 -8 14 -7 14 2 0 8 -6 14 -14 14 -7
0 -13 -1 -13 -2z"/>
<path d="M2130 3161 c0 -6 4 -12 8 -15 5 -3 9 1 9 9 0 8 -4 15 -9 15 -4 0 -8
-4 -8 -9z"/>
<path d="M2286 3161 c8 -9 44 -11 44 -3 0 4 -11 8 -25 8 -13 0 -22 -2 -19 -5z"/>
<path d="M2433 3155 c0 -8 4 -12 9 -9 5 3 6 10 3 15 -9 13 -12 11 -12 -6z"/>
<path d="M3000 3151 c0 -6 4 -13 10 -16 6 -3 7 1 4 9 -7 18 -14 21 -14 7z"/>
<path d="M2190 3142 c0 -5 7 -9 15 -9 8 0 12 4 9 9 -3 4 -9 8 -15 8 -5 0 -9
-4 -9 -8z"/>
<path d="M2236 3141 c-3 -4 4 -17 17 -27 22 -19 22 -19 4 2 -9 11 -14 24 -10
27 3 4 4 7 0 7 -3 0 -8 -4 -11 -9z"/>
<path d="M2590 3142 c0 -5 7 -9 15 -9 8 0 12 4 9 9 -3 4 -9 8 -15 8 -5 0 -9
-4 -9 -8z"/>
<path d="M2654 3129 c-3 -6 -2 -15 3 -20 5 -5 9 -1 9 11 0 23 -2 24 -12 9z"/>
<path d="M2694 3120 c0 -13 4 -16 10 -10 7 7 7 13 0 20 -6 6 -10 3 -10 -10z"/>
<path d="M1950 3119 c0 -5 5 -7 10 -4 6 3 10 8 10 11 0 2 -4 4 -10 4 -5 0 -10
-5 -10 -11z"/>
<path d="M2035 3120 c-3 -5 -1 -10 4 -10 6 0 11 5 11 10 0 6 -2 10 -4 10 -3 0
-8 -4 -11 -10z"/>
<path d="M2110 3120 c0 -5 5 -10 11 -10 5 0 7 5 4 10 -3 6 -8 10 -11 10 -2 0
-4 -4 -4 -10z"/>
<path d="M2320 3126 c0 -2 8 -10 18 -17 15 -13 16 -12 3 4 -13 16 -21 21 -21
13z"/>
<path d="M2433 3112 c-8 -14 -8 -19 1 -19 7 0 13 9 13 19 1 10 1 18 0 18 -1 0
-7 -8 -14 -18z"/>
<path d="M2910 3125 c0 -7 30 -13 34 -7 3 4 -4 9 -15 9 -10 1 -19 0 -19 -2z"/>
<path d="M2555 3100 c6 -30 16 -40 12 -12 -2 12 -6 24 -10 28 -3 4 -4 -4 -2
-16z"/>
<path d="M2194 3088 l-19 -23 23 19 c21 18 27 26 19 26 -2 0 -12 -10 -23 -22z"/>
<path d="M2599 3093 c-13 -16 -12 -17 4 -4 16 13 21 21 13 21 -2 0 -10 -8 -17
-17z"/>
<path d="M2759 3108 c-6 -21 -5 -37 1 -33 5 3 11 1 15 -5 3 -5 -1 -10 -9 -11
-52 -3 -74 -2 -90 4 -10 4 -15 3 -11 -3 4 -6 -10 -11 -32 -12 -62 -2 -67 -3
-82 -13 -11 -6 -13 -4 -8 11 7 18 6 18 -9 -1 -8 -11 -19 -19 -24 -18 -5 2 -7
-4 -4 -11 3 -8 7 -32 8 -53 2 -32 5 -38 23 -37 16 1 20 -4 18 -18 -2 -10 0
-16 6 -13 5 4 7 10 4 15 -3 4 2 13 10 20 8 7 15 10 15 8 0 -3 18 -2 39 2 22 4
47 3 56 -3 12 -6 16 -6 11 1 -7 12 147 10 199 -2 31 -7 52 -22 44 -30 -9 -10
-100 19 -92 29 4 5 1 5 -7 -1 -23 -16 -79 -17 -97 -2 -9 7 -14 8 -10 2 8 -13
-49 -28 -66 -17 -6 4 -7 1 -2 -7 6 -9 2 -10 -15 -5 -15 5 -20 4 -16 -4 4 -6 2
-11 -3 -11 -13 0 -51 -32 -51 -42 0 -13 52 -9 95 7 48 17 166 19 215 4 55 -17
127 -19 127 -3 0 7 -4 11 -8 8 -4 -2 -12 3 -17 12 -5 9 -12 15 -15 15 -21 -3
-27 1 -27 15 0 13 6 11 31 -7 25 -18 33 -19 40 -8 4 7 5 16 1 19 -4 3 -18 26
-31 52 -15 30 -34 51 -52 58 -16 7 -26 16 -23 21 3 5 -2 6 -11 3 -8 -4 -21 -1
-29 5 -7 6 -16 8 -19 4 -4 -3 -14 0 -24 8 -9 8 -14 9 -10 3 4 -7 0 -11 -11
-10 -17 1 -49 35 -44 49 1 4 0 7 -3 7 -3 0 -5 -1 -6 -2z"/>
<path d="M1964 3078 l-19 -23 23 19 c21 18 27 26 19 26 -2 0 -12 -10 -23 -22z"/>
<path d="M2014 3086 c1 -8 5 -18 8 -22 4 -3 5 1 4 10 -1 8 -5 18 -8 22 -4 3
-5 -1 -4 -10z"/>
<path d="M2135 3091 c-3 -5 -2 -12 3 -15 5 -3 9 1 9 9 0 17 -3 19 -12 6z"/>
<path d="M2935 3089 c-4 -6 -5 -12 -2 -15 2 -3 7 2 10 11 7 17 1 20 -8 4z"/>
<path d="M1832 3085 c3 -3 16 -8 28 -10 12 -2 20 -1 16 2 -4 4 -16 8 -28 10
-12 2 -19 1 -16 -2z"/>
<path d="M2240 3080 c-9 -6 -10 -10 -3 -10 6 0 15 5 18 10 8 12 4 12 -15 0z"/>
<path d="M2310 3078 c0 -4 4 -8 9 -8 6 0 12 4 15 8 3 5 -1 9 -9 9 -8 0 -15 -4
-15 -9z"/>
<path d="M2635 3081 c-3 -5 -2 -12 3 -15 5 -3 9 1 9 9 0 17 -3 19 -12 6z"/>
<path d="M1790 3062 c0 -5 7 -9 15 -9 8 0 12 4 9 9 -3 4 -9 8 -15 8 -5 0 -9
-4 -9 -8z"/>
<path d="M2396 3061 c-3 -5 2 -15 12 -22 15 -12 16 -12 5 2 -7 9 -10 19 -6 22
3 4 4 7 0 7 -3 0 -8 -4 -11 -9z"/>
<path d="M2130 3055 c0 -6 -45 -10 -113 -10 -84 0 -120 -5 -145 -17 -18 -9
-30 -13 -28 -9 3 4 -1 8 -9 8 -8 0 -12 -4 -9 -9 3 -5 -6 -22 -20 -39 -14 -17
-29 -42 -33 -57 -3 -15 -14 -33 -23 -42 -9 -8 -10 -11 -3 -6 8 5 13 4 13 -3 0
-6 18 0 39 15 48 31 115 52 159 49 19 -2 32 2 32 9 0 6 4 6 9 -3 5 -8 11 -9
15 -3 4 6 18 8 34 3 15 -4 48 -6 75 -5 49 2 55 -3 35 -26 -7 -8 -4 -7 8 3 22
18 60 23 66 7 6 -19 26 6 28 35 4 53 0 75 -11 75 -7 0 -18 8 -25 18 -11 13
-13 13 -9 1 5 -12 -1 -14 -32 -11 -21 3 -41 10 -45 16 -4 6 -8 7 -8 1z"/>
<path d="M2974 3049 c-3 -6 -2 -15 3 -20 5 -5 9 -1 9 11 0 23 -2 24 -12 9z"/>
<path d="M3014 3040 c0 -13 4 -16 10 -10 7 7 7 13 0 20 -6 6 -10 3 -10 -10z"/>
<path d="M2315 3040 c3 -5 8 -10 11 -10 2 0 4 5 4 10 0 6 -5 10 -11 10 -5 0
-7 -4 -4 -10z"/>
<path d="M2366 3042 c-3 -5 1 -9 9 -9 8 0 12 4 9 9 -3 4 -7 8 -9 8 -2 0 -6 -4
-9 -8z"/>
<path d="M2335 3021 c-3 -6 -1 -11 5 -11 7 0 9 -7 6 -16 -6 -14 -4 -15 9 -4 9
7 12 16 8 19 -4 4 -11 10 -14 14 -4 5 -10 4 -14 -2z"/>
<path d="M1796 3003 c-6 -14 -5 -15 5 -6 7 7 10 15 7 18 -3 3 -9 -2 -12 -12z"/>
<path d="M2418 3011 c10 -6 8 -10 -10 -14 -12 -4 -24 -5 -24 -4 -1 1 -11 -6
-21 -16 -11 -9 -22 -15 -25 -12 -2 3 -5 -2 -5 -10 0 -10 4 -12 13 -4 8 7 14 6
18 -3 3 -7 4 -4 3 7 -1 11 3 20 10 20 6 0 15 3 19 8 15 14 21 7 16 -19 -3 -18
-1 -25 6 -20 6 4 9 13 6 20 -3 7 2 20 10 29 14 13 14 16 0 21 -23 9 -31 7 -16
-3z"/>
<path d="M3035 3009 c-4 -6 -5 -12 -2 -15 2 -3 7 2 10 11 7 17 1 20 -8 4z"/>
<path d="M1745 2940 c-3 -6 1 -7 9 -4 18 7 21 14 7 14 -6 0 -13 -4 -16 -10z"/>
<path d="M3035 2941 c-3 -5 -2 -12 3 -15 5 -3 9 1 9 9 0 17 -3 19 -12 6z"/>
<path d="M1950 2923 c0 -6 -8 -11 -17 -11 -10 0 -27 -3 -37 -7 -15 -7 -17 -5
-11 6 5 8 0 6 -12 -4 -11 -10 -30 -19 -42 -20 -11 -1 -23 -7 -26 -15 -3 -7 -9
-11 -14 -8 -5 3 -12 -1 -15 -10 -4 -9 -13 -14 -22 -10 -8 3 -12 2 -9 -4 9 -15
83 -12 139 5 58 18 165 19 221 4 68 -19 94 -19 92 2 -1 10 -4 17 -7 17 -20 -2
-30 4 -24 13 4 7 1 10 -7 7 -8 -3 -23 -1 -34 5 -11 6 -29 12 -40 14 -11 2 -24
8 -29 13 -6 6 -15 10 -20 10 -6 0 -4 -4 4 -10 10 -6 0 -8 -30 -7 -25 0 -48 6
-52 12 -5 6 -8 6 -8 -2z"/>
<path d="M2296 2913 c-6 -14 -5 -15 5 -6 7 7 10 15 7 18 -3 3 -9 -2 -12 -12z"/>
<path d="M2350 2915 c5 -7 6 -16 2 -21 -4 -5 -3 -5 2 -1 15 12 15 34 0 34 -9
0 -11 -4 -4 -12z"/>
<path d="M2605 2920 c-3 -6 1 -7 9 -4 18 7 21 14 7 14 -6 0 -13 -4 -16 -10z"/>
<path d="M2185 2900 c-3 -6 1 -7 9 -4 18 7 21 14 7 14 -6 0 -13 -4 -16 -10z"/>
<path d="M2316 2893 c-6 -14 -5 -15 5 -6 7 7 10 15 7 18 -3 3 -9 -2 -12 -12z"/>
<path d="M2506 2902 c-3 -5 1 -9 9 -9 8 0 15 4 15 9 0 4 -4 8 -9 8 -6 0 -12
-4 -15 -8z"/>
<path d="M2393 2875 c0 -8 4 -12 9 -9 5 3 6 10 3 15 -9 13 -12 11 -12 -6z"/>
<path d="M2270 2876 c0 -2 8 -10 18 -17 15 -13 16 -12 3 4 -13 16 -21 21 -21
13z"/>
<path d="M2353 2867 c0 -8 6 -14 14 -14 9 0 10 4 2 14 -6 7 -12 13 -14 13 -1
0 -2 -6 -2 -13z"/>
<path d="M2500 2866 c0 -2 8 -10 18 -17 15 -13 16 -12 3 4 -13 16 -21 21 -21
13z"/>
<path d="M2553 2855 c0 -8 4 -12 9 -9 5 3 6 10 3 15 -9 13 -12 11 -12 -6z"/>
<path d="M3036 2858 c3 -5 10 -6 15 -3 13 9 11 12 -6 12 -8 0 -12 -4 -9 -9z"/>
<path d="M2359 2813 c-13 -16 -12 -17 4 -4 16 13 21 21 13 21 -2 0 -10 -8 -17
-17z"/>
<path d="M2390 2826 c0 -2 7 -7 16 -10 8 -3 12 -2 9 4 -6 10 -25 14 -25 6z"/>
<path d="M2552 2807 c-4 -15 -7 -15 -21 -5 -14 12 -14 11 -2 -4 9 -12 10 -22
4 -30 -5 -7 -8 -35 -7 -61 2 -45 1 -47 -15 -29 -9 10 -24 21 -35 25 -12 5 -16
13 -12 25 6 16 5 16 -7 0 -13 -16 -61 -22 -51 -6 3 4 0 8 -5 8 -6 0 -11 -5
-11 -12 0 -9 -3 -9 -12 0 -7 7 -17 12 -22 12 -6 0 -4 -5 4 -10 11 -7 7 -10
-17 -10 -18 0 -35 1 -38 3 -2 1 -12 -8 -20 -20 -24 -34 -31 -28 -34 24 -1 25
-7 55 -12 65 -5 10 -6 18 -2 18 4 0 1 5 -7 10 -14 9 -60 14 -60 6 0 -2 12 -25
27 -52 63 -113 9 -253 -111 -285 -53 -14 -172 -7 -211 13 -33 17 -79 60 -102
94 -29 44 -21 157 14 196 8 9 12 21 9 26 -9 15 -55 1 -61 -19 -4 -11 -10 -17
-14 -15 -4 3 -6 -14 -5 -37 5 -91 9 -135 13 -131 8 8 30 -47 24 -61 -3 -8 0
-15 7 -15 6 0 8 5 4 12 -4 7 -3 8 4 4 7 -4 12 -14 12 -22 0 -8 4 -13 9 -9 10
5 26 -12 26 -29 0 -33 258 -51 315 -21 17 9 35 13 40 10 6 -4 7 1 3 11 -4 10
-2 15 3 11 6 -3 18 7 28 24 9 16 21 29 26 29 5 0 6 8 3 17 -5 13 -3 15 13 9
15 -6 17 -5 7 5 -23 23 -14 33 42 50 6 1 16 9 24 17 22 22 145 10 184 -18 16
-13 27 -18 23 -12 -3 6 -2 13 4 17 9 6 14 -17 14 -67 0 -9 3 -15 8 -12 4 3 13
-6 20 -20 6 -14 15 -26 20 -26 5 0 6 -5 2 -12 -4 -6 -3 -8 4 -4 6 3 27 -3 46
-15 31 -18 50 -21 133 -19 129 2 142 4 136 13 -2 4 3 7 11 7 9 0 16 5 16 12 0
6 3 9 6 5 4 -3 15 4 25 16 16 19 20 20 29 7 9 -12 10 -10 5 9 -6 20 -5 23 11
17 10 -4 16 -4 12 -1 -8 8 12 66 20 61 8 -4 9 9 13 94 1 30 -1 66 -5 79 -6 18
-5 22 5 16 8 -4 3 3 -11 14 -14 11 -37 21 -53 21 l-27 0 26 -39 c18 -27 27
-58 31 -98 4 -51 1 -63 -22 -98 -58 -87 -132 -120 -252 -113 -91 6 -140 36
-173 103 -30 62 -25 146 12 202 l25 38 -30 0 c-20 0 -32 -6 -35 -18z"/>
<path d="M2750 2807 c-14 -6 -28 -16 -32 -22 -4 -5 -8 -6 -8 -1 0 5 -11 -1
-25 -14 -13 -12 -22 -27 -19 -31 3 -5 0 -9 -7 -9 -18 0 -5 -96 16 -120 10 -11
22 -17 28 -13 6 3 7 1 3 -5 -12 -19 84 -49 109 -34 5 3 20 7 34 8 42 5 81 54
87 108 4 33 2 46 -5 42 -6 -4 -9 -1 -5 8 7 17 -21 52 -56 71 -37 19 -92 25
-120 12z m40 -84 c0 -17 -29 -43 -49 -43 -46 0 -54 66 -11 87 22 11 27 10 42
-10 10 -12 18 -27 18 -34z"/>
<path d="M1939 2796 c-50 -17 -75 -43 -89 -93 -11 -37 -10 -46 7 -80 38 -76
146 -101 219 -51 40 27 54 56 54 110 0 34 -6 46 -41 80 -30 29 -47 39 -67 37
-15 -2 -32 0 -37 3 -6 3 -26 1 -46 -6z m29 -33 c-1 -5 2 -20 6 -36 15 -50 -33
-77 -68 -38 -32 36 -17 56 62 80 1 1 1 -2 0 -6z"/>
<path d="M2296 2798 c3 -5 10 -6 15 -3 13 9 11 12 -6 12 -8 0 -12 -4 -9 -9z"/>
<path d="M2470 2806 c0 -2 7 -7 16 -10 8 -3 12 -2 9 4 -6 10 -25 14 -25 6z"/>
<path d="M2430 2796 c0 -2 8 -10 18 -17 15 -13 16 -12 3 4 -13 16 -21 21 -21
13z"/>
<path d="M3079 2773 c-13 -16 -12 -17 4 -4 9 7 17 15 17 17 0 8 -8 3 -21 -13z"/>
<path d="M2303 2764 c9 -11 14 -23 11 -26 -3 -3 -1 -8 4 -12 18 -11 8 25 -12
41 -21 18 -21 18 -3 -3z"/>
<path d="M2473 2765 c0 -8 4 -12 9 -9 5 3 6 10 3 15 -9 13 -12 11 -12 -6z"/>
<path d="M2414 2762 c4 -3 14 -7 22 -8 9 -1 13 0 10 4 -4 3 -14 7 -22 8 -9 1
-13 0 -10 -4z"/>
<path d="M1695 2681 c-3 -5 -2 -12 3 -15 5 -3 9 1 9 9 0 17 -3 19 -12 6z"/>
<path d="M1676 2638 c3 -5 10 -6 15 -3 13 9 11 12 -6 12 -8 0 -12 -4 -9 -9z"/>
<path d="M2345 2641 c3 -3 17 -6 31 -7 13 0 22 2 19 5 -3 3 -17 6 -31 7 -13 0
-22 -2 -19 -5z"/>
<path d="M2473 2625 c0 -8 4 -12 9 -9 5 3 6 10 3 15 -9 13 -12 11 -12 -6z"/>
<path d="M1667 2619 c7 -7 15 -10 18 -7 3 3 -2 9 -12 12 -14 6 -15 5 -6 -5z"/>
<path d="M2476 2583 c-6 -14 -5 -15 5 -6 7 7 10 15 7 18 -3 3 -9 -2 -12 -12z"/>
<path d="M2439 2573 c-13 -16 -12 -17 4 -4 9 7 17 15 17 17 0 8 -8 3 -21 -13z"/>
<path d="M2290 2576 c0 -2 8 -10 18 -17 15 -13 16 -12 3 4 -13 16 -21 21 -21
13z"/>
<path d="M1715 2560 c-3 -5 -1 -10 4 -10 6 0 11 5 11 10 0 6 -2 10 -4 10 -3 0
-8 -4 -11 -10z"/>
<path d="M2350 2556 c0 -2 8 -10 18 -17 15 -13 16 -12 3 4 -13 16 -21 21 -21
13z"/>
<path d="M2477 2549 c7 -7 15 -10 18 -7 3 3 -2 9 -12 12 -14 6 -15 5 -6 -5z"/>
<path d="M2395 2540 c-3 -5 -1 -10 4 -10 6 0 11 5 11 10 0 6 -2 10 -4 10 -3 0
-8 -4 -11 -10z"/>
<path d="M2296 2518 c3 -5 10 -6 15 -3 13 9 11 12 -6 12 -8 0 -12 -4 -9 -9z"/>
<path d="M2496 2515 c4 -8 0 -23 -7 -33 -13 -15 -12 -16 4 -3 15 12 17 11 17
-3 0 -9 -6 -16 -12 -16 -9 0 -9 -3 -2 -8 17 -11 24 -40 11 -45 -7 -2 -21 3
-32 12 -20 16 -20 16 -2 -6 28 -32 52 -23 51 18 -1 46 -15 99 -25 99 -5 0 -6
-7 -3 -15z"/>
<path d="M3050 2520 c0 -5 5 -10 11 -10 5 0 7 5 4 10 -3 6 -8 10 -11 10 -2 0
-4 -4 -4 -10z"/>
<path d="M2215 2511 c-3 -5 -2 -12 3 -15 5 -3 9 1 9 9 0 17 -3 19 -12 6z"/>
<path d="M1731 2507 c2 -1 15 -11 29 -22 l25 -20 -19 23 c-11 12 -24 22 -29
22 -6 0 -8 -1 -6 -3z"/>
<path d="M2351 2493 c7 -12 15 -20 18 -17 3 2 -3 12 -13 22 -17 16 -18 16 -5
-5z"/>
<path d="M2975 2500 c-3 -5 -1 -10 4 -10 6 0 11 5 11 10 0 6 -2 10 -4 10 -3 0
-8 -4 -11 -10z"/>
<path d="M1716 2487 c3 -10 9 -15 12 -12 3 3 0 11 -7 18 -10 9 -11 8 -5 -6z"/>
<path d="M2279 2488 c-7 -25 -3 -40 14 -55 22 -18 22 -18 6 2 -9 11 -15 28
-14 38 3 13 -2 26 -6 15z"/>
<path d="M3095 2481 c-3 -5 -2 -12 3 -15 5 -3 9 1 9 9 0 17 -3 19 -12 6z"/>
<path d="M2315 2469 c-4 -6 -5 -12 -2 -15 2 -3 7 2 10 11 7 17 1 20 -8 4z"/>
<path d="M1670 2466 c0 -2 7 -7 16 -10 8 -3 12 -2 9 4 -6 10 -25 14 -25 6z"/>
<path d="M2390 2459 c0 -5 5 -7 10 -4 6 3 10 8 10 11 0 2 -4 4 -10 4 -5 0 -10
-5 -10 -11z"/>
<path d="M2335 2451 c-3 -5 -2 -12 3 -15 5 -3 9 1 9 9 0 17 -3 19 -12 6z"/>
<path d="M2970 2441 c0 -6 4 -13 10 -16 6 -3 7 1 4 9 -7 18 -14 21 -14 7z"/>
<path d="M3013 2435 c0 -8 4 -12 9 -9 4 3 8 9 8 15 0 5 -4 9 -8 9 -5 0 -9 -7
-9 -15z"/>
<path d="M3076 2442 c-3 -5 1 -9 9 -9 8 0 15 4 15 9 0 4 -4 8 -9 8 -6 0 -12
-4 -15 -8z"/>
<path d="M1666 2423 c-6 -14 -5 -15 5 -6 7 7 10 15 7 18 -3 3 -9 -2 -12 -12z"/>
<path d="M2559 2438 c-5 -18 -6 -38 -1 -34 7 8 12 36 6 36 -2 0 -4 -1 -5 -2z"/>
<path d="M2749 2423 c-13 -16 -12 -17 4 -4 9 7 17 15 17 17 0 8 -8 3 -21 -13z"/>
<path d="M1719 2413 c-13 -16 -12 -17 4 -4 9 7 17 15 17 17 0 8 -8 3 -21 -13z"/>
<path d="M1750 2426 c0 -2 7 -7 16 -10 8 -3 12 -2 9 4 -6 10 -25 14 -25 6z"/>
<path d="M2586 2422 c-2 -4 4 -8 14 -8 10 0 16 4 14 8 -3 4 -9 8 -14 8 -5 0
-11 -4 -14 -8z"/>
<path d="M2635 2421 c-3 -5 -2 -12 3 -15 5 -3 9 1 9 9 0 17 -3 19 -12 6z"/>
<path d="M2811 2427 c2 -1 13 -9 24 -17 19 -14 19 -14 6 3 -7 9 -18 17 -24 17
-6 0 -8 -1 -6 -3z"/>
<path d="M1806 2405 c-11 -8 -15 -15 -9 -15 6 0 16 7 23 15 16 19 11 19 -14 0z"/>
<path d="M2333 2407 c0 -8 6 -14 14 -14 9 0 10 4 2 14 -6 7 -12 13 -14 13 -1
0 -2 -6 -2 -13z"/>
<path d="M2439 2418 c-5 -18 -6 -38 -1 -34 7 8 12 36 6 36 -2 0 -4 -1 -5 -2z"/>
<path d="M2891 2406 c-9 -10 -8 -16 4 -26 10 -9 15 -9 15 -1 0 6 -5 11 -11 11
-8 0 -8 5 1 15 7 8 10 15 7 15 -2 0 -10 -6 -16 -14z"/>
<path d="M1856 2398 c3 -5 10 -6 15 -3 13 9 11 12 -6 12 -8 0 -12 -4 -9 -9z"/>
<path d="M1915 2401 c-3 -5 -2 -12 3 -15 5 -3 9 1 9 9 0 17 -3 19 -12 6z"/>
<path d="M1975 2400 c-5 -7 -4 -11 1 -8 5 3 17 -3 27 -14 9 -10 14 -18 10 -18
-4 0 2 -6 12 -14 17 -12 18 -17 7 -42 -11 -27 -11 -27 3 -10 19 25 19 29 -5
68 -11 18 -20 29 -20 24 0 -6 -6 -2 -13 9 -11 14 -16 15 -22 5z"/>
<path d="M2030 2395 c0 -8 2 -15 4 -15 2 0 6 7 10 15 3 8 1 15 -4 15 -6 0 -10
-7 -10 -15z"/>
<path d="M2122 2394 c-7 -8 -8 -14 -3 -14 10 0 25 19 20 25 -2 1 -10 -3 -17
-11z"/>
<path d="M2203 2399 c18 -10 18 -11 0 -25 -24 -18 -39 -18 -23 1 9 10 9 15 1
15 -6 0 -11 -4 -11 -8 0 -5 -7 -9 -15 -10 -8 -1 -22 -3 -30 -4 -19 -2 -19 -6
2 -26 16 -16 16 -16 10 1 -5 13 -3 17 5 14 7 -2 12 -13 10 -23 -3 -18 -3 -18
11 1 15 20 16 20 40 -3 13 -13 40 -25 58 -27 24 -3 29 -2 19 5 -8 5 -11 12 -8
15 4 4 14 -2 24 -14 10 -11 22 -17 27 -14 7 4 8 -1 3 -12 -6 -18 -6 -18 15 1
20 17 22 17 16 2 -4 -10 -2 -18 3 -18 5 0 9 11 8 23 -1 13 -8 24 -15 24 -6 0
-10 -4 -7 -8 2 -4 -5 -7 -16 -6 -11 1 -20 5 -20 9 0 4 -12 14 -26 21 -15 8
-22 17 -17 20 6 4 22 -2 35 -13 14 -11 28 -17 31 -13 3 3 17 3 31 -1 19 -5 24
-11 19 -24 -4 -11 1 -8 14 7 20 25 20 25 31 4 6 -11 8 -23 4 -27 -3 -4 2 -4
12 0 15 6 17 4 11 -6 -5 -8 -4 -11 3 -6 6 4 8 14 5 23 -4 10 -2 14 5 9 6 -3
13 -2 17 4 3 5 11 10 17 10 6 0 3 -9 -7 -20 -18 -20 -18 -21 0 -14 14 6 16 4
10 -6 -5 -9 -4 -11 4 -6 6 4 9 12 5 17 -3 5 0 16 6 25 10 11 16 12 26 3 8 -6
14 -16 14 -21 0 -6 -7 -5 -15 2 -9 7 -15 8 -15 2 0 -10 14 -18 35 -21 5 0 10
7 10 16 0 9 6 18 13 20 7 3 10 -1 7 -9 -3 -7 4 -19 15 -26 12 -7 20 -8 20 -2
0 5 -5 10 -11 10 -5 0 -7 5 -3 11 4 8 9 8 17 0 14 -14 27 -14 27 0 0 5 -4 8
-9 4 -21 -12 -17 11 4 27 23 17 23 17 20 -17 -2 -19 1 -38 7 -41 7 -4 8 -2 4
4 -4 7 -2 12 3 12 6 0 11 -5 11 -12 0 -6 2 -9 5 -6 9 8 -6 38 -16 32 -5 -3 -9
2 -9 11 0 9 5 13 11 9 8 -5 8 -1 0 13 -6 11 -8 22 -6 25 2 2 -5 9 -15 16 -11
7 -20 8 -20 3 0 -5 6 -11 12 -13 9 -3 8 -9 -4 -21 -22 -22 -31 -21 -23 2 3 11
1 22 -5 26 -6 3 -7 12 -3 18 5 8 2 8 -9 0 -8 -7 -17 -10 -20 -7 -3 3 -5 -6 -4
-20 1 -31 16 -35 16 -5 0 11 4 18 9 14 8 -4 8 -25 2 -65 -1 -3 -6 2 -11 10 -8
12 -13 13 -30 2 -17 -10 -21 -10 -26 3 -4 11 -15 13 -37 10 -25 -5 -28 -3 -18
8 6 8 22 13 36 11 14 -1 23 2 19 7 -3 5 0 9 7 9 6 0 9 -8 6 -20 -3 -11 -1 -18
4 -14 12 7 11 25 -1 44 -9 13 -12 13 -21 -2 -5 -10 -15 -18 -21 -18 -7 0 -7 4
0 13 9 10 4 13 -21 13 -37 -1 -49 -13 -41 -40 4 -12 2 -16 -5 -12 -6 4 -11 14
-11 22 0 16 -16 19 -25 4 -5 -8 -11 -7 -21 1 -10 8 -14 8 -14 0 0 -6 -5 -11
-11 -11 -5 0 -7 5 -3 12 4 7 3 8 -5 4 -6 -4 -9 -12 -6 -17 3 -5 -1 -6 -9 -3
-8 3 -17 11 -19 17 -2 7 -3 5 -2 -4 1 -9 -3 -16 -10 -16 -7 0 -11 6 -8 14 3 7
1 13 -5 13 -6 0 -8 10 -6 23 4 20 4 20 -5 2 -4 -11 -7 -23 -4 -27 2 -5 0 -8
-6 -8 -5 0 -11 5 -13 12 -2 6 -12 12 -21 14 -9 1 -15 -2 -11 -7 3 -5 10 -6 16
-3 6 4 9 1 6 -6 -5 -15 -37 -23 -39 -9 -3 19 -5 24 -12 37 -5 6 -14 12 -20 12
-7 0 -4 -5 6 -11z m12 -39 c-3 -5 -1 -11 4 -11 26 -3 30 -4 36 -11 4 -4 4 -12
0 -18 -4 -7 -16 -3 -36 11 -27 19 -31 39 -8 39 6 0 7 -4 4 -10z m275 -2 c0 6
5 12 11 12 8 0 8 -5 -1 -15 -13 -16 -30 -11 -30 8 0 7 4 6 10 -3 6 -10 10 -11
10 -2z m-80 -16 c0 -13 -12 -22 -22 -16 -10 6 -1 24 13 24 5 0 9 -4 9 -8z m45
-32 c-6 -9 -9 -9 -16 1 -10 17 0 34 13 21 6 -6 7 -16 3 -22z m35 16 c0 -3 -4
-8 -10 -11 -5 -3 -10 -1 -10 4 0 6 5 11 10 11 6 0 10 -2 10 -4z"/>
<path d="M2690 2396 c0 -8 5 -18 10 -21 6 -4 8 -10 6 -14 -3 -4 -2 -12 2 -18
5 -8 14 -7 30 6 l23 17 -21 19 c-18 16 -20 16 -14 2 3 -9 11 -17 18 -17 6 0 4
-5 -4 -10 -21 -13 -26 -12 -28 5 -1 8 -3 22 -4 30 -2 19 -18 20 -18 1z"/>
<path d="M2807 2391 c-3 -13 -1 -18 9 -14 7 2 10 11 7 19 -7 19 -10 18 -16 -5z"/>
<path d="M2852 2394 c-7 -8 -8 -14 -3 -14 10 0 25 19 20 25 -2 1 -10 -3 -17
-11z"/>
<path d="M2758 2393 c7 -3 16 -2 19 1 4 3 -2 6 -13 5 -11 0 -14 -3 -6 -6z"/>
<path d="M3073 2385 c0 -8 4 -12 9 -9 5 3 6 10 3 15 -9 13 -12 11 -12 -6z"/>
<path d="M3110 2391 c0 -6 4 -12 8 -15 5 -3 9 1 9 9 0 8 -4 15 -9 15 -4 0 -8
-4 -8 -9z"/>
<path d="M1670 2375 c-11 -13 -10 -14 4 -9 9 3 16 10 16 15 0 13 -6 11 -20 -6z"/>
<path d="M1883 2382 c-10 -7 -10 -12 0 -26 13 -18 47 -13 47 7 0 7 -4 7 -12
-1 -17 -17 -28 -15 -28 4 0 9 5 12 12 8 7 -4 8 -3 4 4 -8 14 -8 14 -23 4z"/>
<path d="M1944 2380 c1 -7 5 -11 10 -10 5 1 12 -4 17 -11 4 -8 11 -10 16 -6 8
9 -17 28 -28 21 -4 -2 -10 1 -12 6 -4 7 -5 6 -3 0z"/>
<path d="M2047 2376 c-7 -18 18 -40 34 -30 7 4 10 2 7 -7 -3 -8 -11 -13 -17
-11 -6 1 -11 -2 -11 -8 0 -14 13 -13 28 2 6 6 15 8 19 4 4 -4 1 -11 -7 -16 -9
-6 -10 -10 -3 -10 21 0 26 21 9 39 -10 11 -14 25 -9 37 6 16 5 17 -9 4 -9 -8
-14 -18 -11 -22 5 -10 -11 -10 -20 -1 -4 3 -2 12 4 20 7 8 8 13 1 13 -5 0 -12
-6 -15 -14z"/>
<path d="M2940 2378 c0 -4 4 -8 9 -8 6 0 12 4 15 8 3 5 -1 9 -9 9 -8 0 -15 -4
-15 -9z"/>
<path d="M2966 2365 c-11 -8 -15 -15 -9 -15 7 0 15 5 19 11 3 6 15 9 25 6 11
-3 17 -1 13 4 -8 13 -26 11 -48 -6z"/>
<path d="M1779 2362 c9 -7 10 -11 2 -15 -7 -4 -8 -5 0 -3 15 2 13 20 -3 24
-10 3 -10 2 1 -6z"/>
<path d="M3090 2362 c0 -4 9 -13 20 -20 19 -12 20 -11 8 8 -13 20 -28 27 -28
12z"/>
<path d="M1709 2343 c-13 -16 -12 -17 4 -4 9 7 17 15 17 17 0 8 -8 3 -21 -13z"/>
<path d="M1818 2347 c-21 -21 -45 -26 -59 -14 -11 10 -11 9 0 -5 10 -14 9 -17
-9 -23 -17 -5 -19 -10 -9 -21 8 -9 8 -14 1 -14 -6 0 -16 8 -21 18 -6 9 -11 12
-11 7 0 -6 5 -16 12 -23 6 -6 8 -15 4 -19 -4 -4 -10 -3 -14 2 -12 17 -42 38
-42 29 0 -5 12 -17 26 -27 24 -18 26 -18 44 -2 10 9 16 23 13 31 -9 23 7 16
18 -8 9 -21 9 -21 4 5 -4 22 -1 29 18 36 12 5 29 16 36 25 16 19 8 21 -11 3z"/>
<path d="M2979 2344 c-7 -8 -19 -12 -28 -9 -13 5 -13 4 -4 -6 10 -10 15 -9 28
1 12 10 15 10 15 -3 0 -8 -3 -17 -7 -20 -5 -2 -2 -2 6 0 8 2 22 -4 32 -13 11
-10 19 -14 19 -10 0 4 10 -2 22 -14 31 -29 34 -17 4 13 -14 15 -26 22 -26 17
0 -6 -9 -2 -20 7 -26 22 -26 37 -1 23 25 -13 31 -13 31 0 0 6 -3 9 -7 8 -5 -1
-18 3 -29 10 -18 9 -24 9 -35 -4z"/>
<path d="M3078 2337 c7 -8 9 -17 5 -21 -4 -4 1 -4 12 0 18 7 18 6 6 -9 -15
-19 -31 -14 -32 11 0 11 -2 12 -6 4 -7 -17 15 -42 31 -36 15 6 18 -25 4 -43
-8 -9 -15 -9 -34 4 -13 8 -24 12 -24 8 0 -5 -8 2 -19 13 -10 12 -22 22 -26 22
-5 0 1 -11 14 -23 14 -16 19 -31 15 -43 -5 -15 -4 -16 5 -4 5 8 13 11 17 7 5
-4 -4 -19 -20 -33 -26 -25 -52 -26 -28 -2 7 7 12 16 12 22 0 5 -6 1 -14 -10
-8 -10 -18 -15 -22 -11 -5 4 -2 12 6 17 8 6 11 10 5 10 -30 0 -34 -17 -10 -40
23 -22 26 -22 44 -6 17 16 19 15 34 -8 16 -23 16 -25 -3 -23 -13 1 -19 6 -15
16 5 11 3 12 -10 1 -12 -10 -13 -15 -3 -21 6 -4 16 -5 20 -3 4 3 8 -3 8 -12 0
-16 1 -16 14 1 12 17 12 23 -5 47 -13 18 -16 29 -8 33 5 4 8 13 5 21 -3 8 -2
14 3 14 16 0 20 -13 10 -31 -17 -33 5 -20 28 16 12 19 20 45 18 57 -3 12 -1
25 5 28 5 3 -5 13 -22 23 -20 12 -27 13 -20 4z"/>
<path d="M1990 2329 c0 -5 5 -7 10 -4 6 3 10 1 10 -4 0 -6 -5 -11 -11 -11 -5
0 -7 -4 -4 -10 3 -5 1 -10 -4 -10 -6 0 -11 -4 -11 -8 0 -5 7 -9 15 -9 8 0 13
3 10 5 -3 3 2 15 10 28 13 20 12 23 -1 28 -21 8 -24 8 -24 -5z"/>
<path d="M1725 2320 c-3 -5 -1 -10 4 -10 6 0 11 5 11 10 0 6 -2 10 -4 10 -3 0
-8 -4 -11 -10z"/>
<path d="M2806 2316 c4 -12 4 -17 -2 -13 -6 3 -16 2 -23 -2 -9 -6 -10 -11 -2
-15 6 -4 11 -2 11 4 0 6 4 9 9 5 15 -9 25 15 12 28 -9 9 -10 7 -5 -7z"/>
<path d="M1686 2311 c-17 -6 -17 -8 -4 -14 10 -3 19 0 22 9 3 8 4 14 3 13 -1
0 -11 -4 -21 -8z"/>
<path d="M2710 2311 c0 -5 7 -11 15 -15 8 -3 15 -1 15 3 0 5 -7 11 -15 15 -8
3 -15 1 -15 -3z"/>
<path d="M2180 2288 c-10 -21 -10 -21 3 -5 8 9 17 17 21 17 3 0 6 -8 6 -17 0
-15 2 -16 10 -3 6 9 5 17 -3 22 -19 12 -26 10 -37 -14z"/>
<path d="M2403 2292 c-8 -14 -8 -19 1 -19 7 0 13 9 13 19 1 10 1 18 0 18 -1 0
-7 -8 -14 -18z"/>
<path d="M2974 2252 c-10 -15 -8 -18 12 -20 13 -1 24 3 24 8 0 5 -7 7 -15 4
-11 -5 -13 -2 -9 10 8 21 2 20 -12 -2z"/>
<path d="M1675 2240 c3 -5 8 -10 11 -10 2 0 4 5 4 10 0 6 -5 10 -11 10 -5 0
-7 -4 -4 -10z"/>
<path d="M1700 2219 c0 -5 5 -7 10 -4 6 3 10 8 10 11 0 2 -4 4 -10 4 -5 0 -10
-5 -10 -11z"/>
<path d="M2964 2155 c36 -19 45 -19 20 0 -10 8 -26 14 -34 15 -8 0 -2 -7 14
-15z"/>
<path d="M1710 2142 c6 -13 14 -21 18 -18 3 4 -2 14 -12 24 -18 16 -18 16 -6
-6z"/>
<path d="M1885 2089 c-4 -5 1 -19 11 -30 21 -23 8 -25 -18 -2 -10 9 -18 12
-18 7 0 -5 16 -19 34 -31 29 -19 35 -20 40 -7 3 9 2 23 -3 32 -4 9 -6 24 -4
32 3 8 -1 6 -10 -5 -8 -11 -19 -16 -23 -12 -5 4 -2 12 6 17 9 6 10 10 3 10 -6
0 -15 -5 -18 -11z m45 -51 c0 -19 -16 -5 -17 14 -2 18 0 20 7 8 5 -8 10 -18
10 -22z"/>
<path d="M2949 2088 c-4 -38 13 -68 26 -47 5 8 4 10 -3 5 -7 -4 -12 -3 -12 3
0 5 8 15 18 20 15 9 15 12 2 21 -20 13 -30 13 -31 -2z m21 -8 c0 -5 -5 -10
-11 -10 -5 0 -7 5 -4 10 3 6 8 10 11 10 2 0 4 -4 4 -10z"/>
<path d="M1940 2085 c0 -5 4 -16 9 -24 11 -17 31 -6 30 17 0 14 -2 13 -8 -3
-8 -19 -8 -19 -19 0 -6 11 -11 16 -12 10z"/>
<path d="M3010 2080 c-9 -6 -10 -10 -3 -10 6 0 15 5 18 10 8 12 4 12 -15 0z"/>
<path d="M1861 2011 c-9 -6 -10 -11 -2 -15 6 -4 11 -2 11 4 0 6 5 8 10 5 6 -3
10 -1 10 4 0 13 -10 14 -29 2z"/>
<path d="M1900 2001 c0 -5 7 -11 15 -15 8 -3 15 -1 15 3 0 5 -7 11 -15 15 -8
3 -15 1 -15 -3z"/>
<path d="M2660 1955 c-7 -9 -11 -17 -9 -20 3 -2 10 5 17 15 14 24 10 26 -8 5z"/>
<path d="M2675 1940 c-3 -6 -3 -20 1 -33 6 -21 6 -21 -12 -6 -32 27 -51 33
-22 7 15 -14 27 -27 25 -29 -1 -3 6 4 16 14 9 11 17 24 17 31 0 6 -5 4 -10 -4
-8 -13 -10 -13 -10 2 0 9 6 19 13 21 9 4 9 6 0 6 -6 1 -15 -4 -18 -9z"/>
<path d="M2136 1915 c-11 -8 -15 -15 -9 -15 6 0 16 7 23 15 16 19 11 19 -14 0z"/>
<path d="M2100 1879 c0 -5 5 -7 10 -4 6 3 10 8 10 11 0 2 -4 4 -10 4 -5 0 -10
-5 -10 -11z"/>
<path d="M3226 2742 c-2 -4 4 -8 14 -8 10 0 16 4 14 8 -3 4 -9 8 -14 8 -5 0
-11 -4 -14 -8z"/>
<path d="M3184 2604 c1 -8 4 -15 7 -16 2 -2 3 -1 2 1 -2 2 2 9 7 16 7 8 5 12
-4 12 -8 0 -13 -6 -12 -13z"/>
<path d="M3200 2490 c-9 -6 -10 -10 -3 -10 6 0 15 5 18 10 8 12 4 12 -15 0z"/>
<path d="M1535 2720 c-3 -5 -1 -10 4 -10 6 0 11 5 11 10 0 6 -2 10 -4 10 -3 0
-8 -4 -11 -10z"/>
<path d="M3226 2662 c-3 -6 -2 -13 4 -17 6 -4 7 -11 4 -17 -4 -7 -2 -8 4 -4 7
4 12 2 12 -5 0 -10 3 -10 12 -1 10 10 8 17 -9 33 -12 13 -23 17 -27 11z m25
-19 c13 -16 12 -17 -3 -4 -17 13 -22 21 -14 21 2 0 10 -8 17 -17z"/>
<path d="M3244 2592 c3 -5 0 -13 -6 -15 -9 -4 -10 -6 -1 -6 17 -1 25 16 12 25
-7 4 -9 3 -5 -4z"/>
<path d="M1526 2642 c-3 -5 1 -9 9 -9 8 0 12 4 9 9 -3 4 -7 8 -9 8 -2 0 -6 -4
-9 -8z"/>
<path d="M1533 2565 c0 -8 4 -12 9 -9 5 3 6 10 3 15 -9 13 -12 11 -12 -6z"/>
<path d="M1530 2535 c0 -2 6 -8 13 -14 10 -8 14 -7 14 2 0 8 -6 14 -14 14 -7
0 -13 -1 -13 -2z"/>
<path d="M2226 1972 c-3 -5 1 -9 9 -9 8 0 12 4 9 9 -3 4 -7 8 -9 8 -2 0 -6 -4
-9 -8z"/>
<path d="M1785 1782 c-13 -9 -17 -32 -6 -32 13 0 33 28 24 33 -5 3 -13 3 -18
-1z"/>
<path d="M1626 1574 c-4 -10 -1 -14 6 -12 15 5 23 28 10 28 -5 0 -13 -7 -16
-16z"/>
<path d="M2210 1884 c0 -5 8 -14 18 -21 15 -9 19 -8 19 3 0 8 -3 12 -5 9 -3
-3 -11 0 -19 6 -7 6 -13 7 -13 3z"/>
<path d="M2070 1780 c0 -5 5 -10 10 -10 6 0 10 5 10 10 0 6 -4 10 -10 10 -5 0
-10 -4 -10 -10z"/>
<path d="M2270 1760 c0 -5 5 -10 11 -10 5 0 7 5 4 10 -3 6 -8 10 -11 10 -2 0
-4 -4 -4 -10z"/>
<path d="M2086 1722 c-3 -5 1 -9 9 -9 8 0 12 4 9 9 -3 4 -7 8 -9 8 -2 0 -6 -4
-9 -8z"/>
<path d="M2055 1689 c-4 -6 -5 -12 -2 -15 2 -3 7 2 10 11 7 17 1 20 -8 4z"/>
<path d="M1755 1519 c-4 -5 -13 -8 -21 -5 -7 3 -16 1 -19 -4 -4 -6 -3 -10 2
-10 4 0 18 -3 29 -6 14 -4 23 0 27 10 7 18 -9 31 -18 15z"/>
<path d="M2586 1502 c-3 -5 1 -9 9 -9 8 0 12 4 9 9 -3 4 -7 8 -9 8 -2 0 -6 -4
-9 -8z"/>
<path d="M2693 1325 c0 -8 4 -12 9 -9 5 3 6 10 3 15 -9 13 -12 11 -12 -6z"/>
<path d="M2080 1561 c0 -6 4 -12 8 -15 5 -3 9 1 9 9 0 8 -4 15 -9 15 -4 0 -8
-4 -8 -9z"/>
<path d="M2330 1531 c0 -6 5 -13 10 -16 6 -3 10 1 10 9 0 9 -4 16 -10 16 -5 0
-10 -4 -10 -9z"/>
<path d="M2360 1521 c0 -6 4 -13 10 -16 6 -3 7 1 4 9 -7 18 -14 21 -14 7z"/>
<path d="M2151 1424 c6 -7 16 -11 21 -8 11 7 3 17 -18 20 -12 2 -13 -1 -3 -12z"/>
<path d="M2375 1380 c3 -5 8 -10 11 -10 2 0 4 5 4 10 0 6 -5 10 -11 10 -5 0
-7 -4 -4 -10z"/>
<path d="M2031 1335 c3 -25 -2 -36 -13 -29 -9 5 -8 2 1 -10 9 -11 18 -13 24
-7 6 6 17 5 32 -5 19 -13 24 -13 34 0 10 12 8 14 -14 12 -18 -2 -31 5 -45 23
-11 14 -20 22 -19 16z"/>
<path d="M1964 1292 c-20 -14 -23 -38 -3 -38 14 0 15 3 7 13 -8 10 -7 12 6 7
12 -5 15 -2 10 10 -7 18 -6 18 -20 8z"/>
<path d="M2194 1256 c4 -10 1 -26 -6 -35 -10 -13 -10 -14 2 -4 9 9 19 9 33 2
12 -7 17 -7 13 -1 -3 6 -1 12 6 14 8 3 6 7 -5 11 -10 4 -17 2 -17 -6 -1 -7 -8
-1 -16 13 -9 15 -13 17 -10 6z"/>
<path d="M2315 1260 c3 -5 1 -10 -5 -10 -18 0 -6 -23 14 -26 10 -1 15 0 12 3
-3 4 0 13 7 21 9 13 9 14 0 8 -7 -4 -13 -2 -13 3 0 6 -5 11 -11 11 -5 0 -7 -4
-4 -10z"/>
<path d="M1900 1135 c13 -16 30 -11 30 8 0 7 -4 6 -10 -3 -6 -10 -10 -11 -10
-2 0 6 -5 12 -11 12 -8 0 -8 -5 1 -15z"/>
<path d="M1775 1091 c-3 -5 -1 -12 5 -16 5 -3 10 1 10 9 0 18 -6 21 -15 7z"/>
<path d="M1924 1081 c4 -6 3 -11 -2 -11 -5 0 -12 -9 -15 -19 -3 -14 -1 -18 9
-14 8 3 12 9 9 13 -3 5 -1 12 5 15 12 7 42 -13 36 -24 -3 -4 4 -7 14 -7 11 0
22 6 24 12 3 7 -3 10 -15 7 -11 -3 -19 -2 -17 3 2 5 -1 11 -7 12 -5 2 -18 8
-29 14 -13 7 -16 7 -12 -1z"/>
<path d="M2857 1178 c-23 -18 -25 -40 -4 -43 13 -3 17 1 13 12 -4 9 -1 22 5
29 14 17 8 18 -14 2z"/>
<path d="M2870 1160 c0 -5 5 -10 10 -10 6 0 10 5 10 10 0 6 -4 10 -10 10 -5 0
-10 -4 -10 -10z"/>
<path d="M1544 1189 c-3 -5 0 -19 6 -31 10 -20 9 -21 -3 -6 -12 15 -14 15 -25
-2 -10 -17 -8 -19 15 -17 16 2 27 9 29 20 1 9 -2 17 -7 17 -5 0 -9 4 -9 10 0
5 7 7 15 4 8 -4 15 -2 15 3 0 12 -29 13 -36 2z"/>
<path d="M1507 1175 c-4 -8 -2 -17 3 -20 6 -4 10 -4 10 -1 0 2 3 11 6 20 3 9
2 16 -4 16 -5 0 -12 -7 -15 -15z"/>
<path d="M1648 1158 c-3 -7 2 -23 9 -35 8 -12 11 -28 7 -35 -6 -10 -4 -10 9 1
14 11 18 11 23 -3 3 -9 10 -16 16 -16 5 0 7 4 4 9 -4 5 0 12 6 14 10 4 10 6 1
6 -7 1 -13 6 -13 12 0 5 4 8 9 4 5 -3 12 -1 15 4 6 9 -18 34 -38 37 -6 1 -18
5 -27 9 -10 4 -19 1 -21 -7z m54 -12 c3 2 11 -2 17 -10 10 -12 9 -14 -6 -11
-10 2 -20 4 -23 5 -3 1 -8 2 -12 1 -5 0 -8 4 -8 10 0 5 -5 7 -12 3 -7 -4 -8
-3 -4 4 5 8 13 9 25 2 10 -5 21 -7 23 -4z m-1 -43 c13 -17 13 -17 -6 -3 -11 8
-22 16 -24 17 -2 2 0 3 6 3 6 0 17 -8 24 -17z"/>
<path d="M1530 1120 c0 -6 7 -10 15 -10 8 0 15 2 15 4 0 2 -7 6 -15 10 -8 3
-15 1 -15 -4z"/>
<path d="M1566 1075 c-3 -10 0 -12 12 -8 14 6 15 4 5 -8 -10 -13 -10 -16 2
-16 8 0 12 4 9 8 -2 4 0 9 6 11 6 2 2 8 -9 15 -15 10 -20 9 -25 -2z"/>
<path d="M1565 1000 c-3 -6 1 -7 9 -4 18 7 21 14 7 14 -6 0 -13 -4 -16 -10z"/>
<path d="M1475 830 c3 -17 1 -20 -12 -16 -14 6 -14 4 -1 -16 9 -13 22 -23 29
-23 8 0 19 -4 25 -7 6 -4 11 -1 11 7 0 8 -4 15 -9 15 -4 0 -8 5 -8 11 0 6 7 8
17 5 10 -4 14 -3 9 1 -4 4 -18 8 -29 8 -12 0 -22 5 -22 12 0 6 -3 15 -7 19 -4
3 -5 -3 -3 -16z m19 -41 c-3 -5 -10 -7 -15 -3 -5 3 -7 10 -3 15 3 5 10 7 15 3
5 -3 7 -10 3 -15z"/>
<path d="M1945 1370 c-4 -6 -11 -8 -16 -5 -16 10 -10 -2 9 -16 9 -7 14 -9 10
-5 -4 5 -3 15 3 23 6 7 9 13 6 13 -3 0 -9 -5 -12 -10z"/>
<path d="M1006 1242 c-3 -5 1 -9 9 -9 8 0 12 4 9 9 -3 4 -7 8 -9 8 -2 0 -6 -4
-9 -8z"/>
<path d="M1006 1122 c-3 -5 1 -9 9 -9 8 0 12 4 9 9 -3 4 -7 8 -9 8 -2 0 -6 -4
-9 -8z"/>
<path d="M1053 1085 c0 -8 4 -12 9 -9 5 3 6 10 3 15 -9 13 -12 11 -12 -6z"/>
<path d="M1081 1074 c0 -11 3 -14 6 -6 3 7 2 16 -1 19 -3 4 -6 -2 -5 -13z"/>
<path d="M1035 1031 c-3 -5 -2 -12 3 -15 5 -3 9 1 9 9 0 17 -3 19 -12 6z"/>
<path d="M1074 889 c-3 -6 -2 -15 3 -20 5 -5 9 -1 9 11 0 23 -2 24 -12 9z"/>
<path d="M1030 876 c0 -2 8 -10 18 -17 15 -13 16 -12 3 4 -13 16 -21 21 -21
13z"/>
<path d="M2337 1163 c-9 -14 8 -33 21 -24 10 6 10 10 -2 20 -8 7 -17 8 -19 4z"/>
<path d="M2481 1093 c7 -12 15 -20 18 -17 3 2 -3 12 -13 22 -17 16 -18 16 -5
-5z"/>
<path d="M2350 999 c0 -5 5 -7 10 -4 6 3 10 8 10 11 0 2 -4 4 -10 4 -5 0 -10
-5 -10 -11z"/>
<path d="M2147 939 c7 -7 15 -10 18 -7 3 3 -2 9 -12 12 -14 6 -15 5 -6 -5z"/>
<path d="M1889 923 c-13 -16 -12 -17 4 -4 16 13 21 21 13 21 -2 0 -10 -8 -17
-17z"/>
<path d="M2030 926 c0 -8 4 -17 9 -20 5 -4 7 3 4 14 -6 23 -13 26 -13 6z"/>
<path d="M2071 907 c-13 -21 -12 -21 5 -5 10 10 16 20 13 22 -3 3 -11 -5 -18
-17z"/>
<path d="M2180 900 c-12 -7 -10 -9 7 -7 12 0 19 5 17 9 -6 10 -6 10 -24 -2z"/>
<path d="M2075 879 c-3 -4 2 -6 10 -5 21 3 28 13 10 13 -9 0 -18 -4 -20 -8z"/>
<path d="M2120 886 c0 -2 8 -10 18 -17 15 -13 16 -12 3 4 -13 16 -21 21 -21
13z"/>
<path d="M2190 860 c0 -5 5 -10 11 -10 5 0 7 5 4 10 -3 6 -8 10 -11 10 -2 0
-4 -4 -4 -10z"/>
<path d="M2059 833 c-13 -16 -12 -17 4 -4 9 7 17 15 17 17 0 8 -8 3 -21 -13z"/>
<path d="M2150 821 c0 -6 4 -13 10 -16 6 -3 7 1 4 9 -7 18 -14 21 -14 7z"/>
<path d="M1973 807 c0 -8 6 -14 14 -14 9 0 10 4 2 14 -6 7 -12 13 -14 13 -1 0
-2 -6 -2 -13z"/>
<path d="M2110 799 c0 -5 5 -7 10 -4 6 3 10 8 10 11 0 2 -4 4 -10 4 -5 0 -10
-5 -10 -11z"/>
<path d="M2189 783 c-13 -16 -12 -17 4 -4 16 13 21 21 13 21 -2 0 -10 -8 -17
-17z"/>
<path d="M2145 780 c-3 -6 1 -7 9 -4 18 7 21 14 7 14 -6 0 -13 -4 -16 -10z"/>
<path d="M1994 766 c1 -8 5 -18 8 -22 4 -3 5 1 4 10 -1 8 -5 18 -8 22 -4 3 -5
-1 -4 -10z"/>
<path d="M2100 745 c0 -2 6 -8 13 -14 10 -8 14 -7 14 2 0 8 -6 14 -14 14 -7 0
-13 -1 -13 -2z"/>
<path d="M2189 727 c6 -14 7 -28 3 -33 -4 -4 -2 -4 5 -1 12 7 7 44 -8 53 -5 3
-5 -6 0 -19z"/>
<path d="M1991 727 c2 -1 13 -9 24 -17 19 -14 19 -14 6 3 -7 9 -18 17 -24 17
-6 0 -8 -1 -6 -3z"/>
<path d="M2053 715 c0 -8 4 -12 9 -9 4 3 8 9 8 15 0 5 -4 9 -8 9 -5 0 -9 -7
-9 -15z"/>
<path d="M2115 701 c-3 -5 -2 -12 3 -15 5 -3 9 1 9 9 0 17 -3 19 -12 6z"/>
<path d="M2150 699 c0 -5 5 -7 10 -4 6 3 10 8 10 11 0 2 -4 4 -10 4 -5 0 -10
-5 -10 -11z"/>
<path d="M2675 1081 c-3 -6 -1 -11 5 -11 6 0 9 -4 5 -9 -8 -14 9 -21 25 -11
16 10 23 40 9 40 -5 0 -9 -8 -9 -17 -1 -17 -2 -17 -14 0 -9 12 -16 14 -21 8z"/>
<path d="M1263 1051 c0 -11 5 -18 9 -15 4 3 5 11 1 19 -7 21 -12 19 -10 -4z"/>
<path d="M835 1050 c10 -11 20 -20 23 -20 3 0 -3 9 -13 20 -10 11 -20 20 -23
20 -3 0 3 -9 13 -20z"/>
<path d="M870 1049 c0 -5 5 -7 10 -4 6 3 10 8 10 11 0 2 -4 4 -10 4 -5 0 -10
-5 -10 -11z"/>
<path d="M2216 982 c-5 -9 2 -11 49 -14 14 -1 25 -6 25 -10 0 -4 5 -8 11 -8 8
0 8 4 0 14 -7 8 -20 13 -29 11 -9 -1 -25 2 -34 6 -9 5 -19 5 -22 1z"/>
<path d="M1290 920 c0 -5 7 -7 15 -4 8 4 15 8 15 10 0 2 -7 4 -15 4 -8 0 -15
-4 -15 -10z"/>
<path d="M1835 1000 c-3 -5 -1 -10 4 -10 6 0 11 5 11 10 0 6 -2 10 -4 10 -3 0
-8 -4 -11 -10z"/>
<path d="M1810 760 c0 -5 5 -10 11 -10 5 0 7 5 4 10 -3 6 -8 10 -11 10 -2 0
-4 -4 -4 -10z"/>
<path d="M846 962 c-3 -5 1 -9 9 -9 8 0 12 4 9 9 -3 4 -7 8 -9 8 -2 0 -6 -4
-9 -8z"/>
<path d="M2490 780 c-9 -6 -10 -10 -3 -10 6 0 15 5 18 10 8 12 4 12 -15 0z"/>
<path d="M2958 885 c-3 -6 0 -18 7 -28 11 -15 14 -16 25 -2 11 13 10 14 -3 9
-10 -3 -17 1 -19 13 -2 10 -6 13 -10 8z"/>
<path d="M2415 861 c-3 -5 -2 -12 3 -15 5 -3 9 1 9 9 0 17 -3 19 -12 6z"/>
<path d="M1618 819 c7 -9 11 -23 9 -30 -2 -8 -2 -11 0 -6 3 4 9 7 14 7 6 0 7
-6 3 -12 -5 -9 -2 -8 9 1 13 11 15 17 6 28 -7 7 -14 11 -17 8 -3 -3 -12 1 -21
8 -14 10 -14 10 -3 -4z"/>
<path d="M2710 701 c-13 -26 -13 -31 4 -31 9 0 13 10 12 25 -1 30 -2 30 -16 6z"/>
<path d="M1537 716 c-3 -6 6 -11 18 -11 12 0 21 5 18 11 -2 6 -10 11 -18 11
-8 0 -16 -5 -18 -11z"/>
<path d="M1535 519 c-4 -6 -4 -13 -1 -16 3 -4 -1 -15 -11 -25 -9 -10 -13 -18
-9 -18 4 0 2 -8 -3 -18 -6 -11 -6 -24 -1 -32 7 -12 9 -11 9 5 -1 26 4 47 15
64 7 11 10 11 17 0 7 -11 9 -11 9 1 0 13 1 13 10 0 8 -12 9 -10 7 7 -2 12 -7
26 -12 30 -4 5 -5 3 -1 -4 3 -6 2 -14 -4 -18 -9 -6 -14 7 -11 28 2 10 -7 9
-14 -4z"/>
<path d="M1440 446 c14 -14 37 -16 37 -2 0 7 -11 12 -24 12 -15 0 -20 -3 -13
-10z"/>
<path d="M1653 435 c0 -8 4 -12 9 -9 5 3 6 10 3 15 -9 13 -12 11 -12 -6z"/>
<path d="M1854 711 c4 -5 0 -11 -6 -14 -7 -3 -3 -4 8 -4 21 1 23 27 2 27 -5 0
-7 -4 -4 -9z"/>
<path d="M2149 512 c0 -4 -2 -15 -4 -25 -2 -9 1 -15 6 -11 5 3 7 11 3 17 -3 7
1 4 9 -5 8 -10 18 -18 22 -18 4 0 2 6 -4 13 -6 8 -8 16 -5 19 2 3 -2 8 -11 11
-8 4 -15 3 -16 -1z"/>
<path d="M2197 453 c9 -3 10 -10 3 -24 -14 -26 -2 -24 21 3 11 11 19 17 19 12
0 -6 -5 -15 -11 -21 -10 -10 -1 -11 29 -4 2 1 -1 8 -6 18 -5 9 -22 17 -38 19
-16 1 -23 0 -17 -3z"/>
<path d="M2330 436 c0 -13 6 -23 15 -23 11 0 12 4 4 13 -7 8 -6 14 2 20 7 4
10 3 7 -2 -3 -5 0 -15 8 -22 16 -14 18 -4 5 17 -15 24 -41 22 -41 -3z"/>
<path d="M2107 429 c7 -7 15 -10 18 -7 3 3 -2 9 -12 12 -14 6 -15 5 -6 -5z"/>
<path d="M1782 435 c11 -25 34 -29 43 -7 7 19 3 23 -28 26 -23 3 -24 1 -15
-19z m32 7 c3 -5 -1 -9 -9 -9 -8 0 -12 4 -9 9 3 4 7 8 9 8 2 0 6 -4 9 -8z"/>
<path d="M2006 487 c3 -10 9 -15 12 -12 3 3 0 11 -7 18 -10 9 -11 8 -5 -6z"/>
<path d="M1944 449 c-2 -4 0 -10 6 -14 5 -3 10 -3 10 1 0 3 6 1 14 -5 15 -13
32 1 21 18 -6 11 -44 10 -51 0z"/>
<path d="M1910 420 c0 -5 5 -10 11 -10 5 0 7 5 4 10 -3 6 -8 10 -11 10 -2 0
-4 -4 -4 -10z"/>
<path d="M2006 367 c3 -10 9 -15 12 -12 3 3 0 11 -7 18 -10 9 -11 8 -5 -6z"/>
</g>
</svg>
